<?xml version="1.0" standalone="no"?>
<!DOCTYPE svg PUBLIC "-//W3C//DTD SVG 1.1//EN" "http://www.w3.org/Graphics/SVG/1.1/DTD/svg11.dtd" >
<svg xmlns="http://www.w3.org/2000/svg">
<metadata></metadata>
<defs>
<font id="westrick_handregular" horiz-adv-x="1024" >
<font-face units-per-em="2048" ascent="1638" descent="-410" />
<missing-glyph horiz-adv-x="354" />
<glyph horiz-adv-x="0" />
<glyph horiz-adv-x="0" />
<glyph horiz-adv-x="682" />
<glyph unicode="&#xd;" horiz-adv-x="843" />
<glyph unicode=" "  horiz-adv-x="354" />
<glyph unicode="&#x09;" horiz-adv-x="354" />
<glyph unicode="&#xa0;" horiz-adv-x="354" />
<glyph unicode="!" horiz-adv-x="288" d="M64 32.5q7 16.5 20.5 31t27.5 22.5l15 8q61 21 72 -26q9 -39 -16 -80q-23 -37 -50 -27q-43 16 -59.5 35.5t-9.5 36zM92 1249q-6 51 0.5 86.5t34.5 26.5q12 -3 18.5 -5t14 -6t10.5 -5.5t7.5 -8t5.5 -9.5t4 -14t4 -16.5t3.5 -23t4.5 -27.5q12 -71 7.5 -465.5t-16.5 -427.5 q-6 -21 -27.5 -24t-39 8.5t-14.5 26.5q2 14 -1 222t-6 409l-4 202z" />
<glyph unicode="&#x22;" horiz-adv-x="423" d="M9 1218.5q1 96.5 44 131.5q6 3 22 6t37 4t35 -11.5t11 -39.5q0 -1 2.5 -41t4 -87t1 -98t-7.5 -87t-21 -42q-47 -20 -88 74t-40 190.5zM214 1218.5q1 96.5 44 131.5q6 3 21.5 6t37 4t35 -11.5t10.5 -39.5q0 -1 2.5 -41t4.5 -87t1.5 -98t-7.5 -87t-21 -42q-47 -20 -88 74 t-40 190.5z" />
<glyph unicode="#" horiz-adv-x="1257" d="M156.5 589.5q-1.5 13.5 1 21.5t10.5 14t14.5 8.5t18 4t15 1.5h11.5q96 -13 175 -14.5t110 3.5l31 5q16 137 20 160q0 7 -9 17.5t-9 27.5t18 47q12 19 27 25t28 1.5t24 -12t18 -15.5l6 -7l-31 -226l147 6l29 168q-3 7 -6 18t0.5 36t21.5 39q19 16 38 9t31.5 -19t16.5 -21 q3 -5 -5.5 -60t-18.5 -107l-10 -52q14 1 38.5 2t91.5 0.5t125 -5.5t122 -19.5t100 -37.5q7 -4 10.5 -28t-7.5 -37t-54 6q-48 26 -110.5 38.5t-117.5 11t-103 -7t-76 -11.5l-28 -7l-43 -180q2 -3 62 -12t134 -25t105 -37q32 -25 29.5 -40t-21.5 -21l-18 -6l-192 51h-117 q-47 -227 -84 -295q-19 -28 -35 -27t-26 16l-11 15l66 283l-150 -14q-45 -215 -47 -238q0 -19 -19.5 -34t-29.5 -3q-13 23 -11.5 84.5t9.5 127.5l8 65l-205 -37q-27 34 -23.5 54.5t21.5 29.5l17 10l209 33l22 149q-227 -4 -239 0q-1 0 -12.5 1.5t-21 2.5t-24 4t-25 7 t-20 9.5t-12.5 12.5q-8 17 -9.5 30.5zM596 383l145 8l31 168l-156 -14z" />
<glyph unicode="$" horiz-adv-x="858" d="M31 180q0 2 0.5 5t2.5 11t4 14t6 11.5t9 7t12 -4t15 -17.5q37 -62 68 -86t43 -17l12 7l41 370q-33 7 -59.5 16t-44.5 18t-30.5 20.5t-19.5 21t-10 22t-3 20.5t2.5 19.5t4.5 17t6 14t4 9.5q5 11 53 41t93 54l45 24l59 228q30 23 51 22t33 -14l12 -13q1 2 -34 -163 q4 8 43.5 13.5t77.5 6.5l38 2q5 30 13.5 76t34 130.5t49.5 100.5q26 17 44 12t26 -19l9 -15l-75 -261q-97 -361 -64 -370q181 -48 224.5 -81t17.5 -109q-16 -48 -88.5 -103.5t-137.5 -86.5l-65 -32q6 -284 10 -325q0 -41 -57 -13q-4 3 -31 229l-10 75q-1 -4 -51 -15 t-100 -19l-50 -9q2 -19 3.5 -47t5 -98.5t-0.5 -84.5q-1 -15 -9 -20.5t-18.5 -2.5t-21 8.5t-17.5 11.5l-7 5q6 228 -19 236q-43 15 -80 51.5t-53 65.5zM176 602q73 -40 82 -22l8 77l-60 -20q-56 -23 -30 -35zM297 111q18 -4 61.5 10t77.5 29l35 16l29 262l-164 33l-33 -164 q-31 -182 -6 -186zM350 551l156 -31q4 1 15 58t19 114l9 56q-2 6 -9 12.5t-49 2.5t-110 -38zM565 207q4 -4 48.5 17.5t91 57t53.5 62.5q6 25 -35 45t-85 27l-44 8z" />
<glyph unicode="%" horiz-adv-x="653" d="M143.5 318q3.5 16 9.5 31.5t18.5 32.5t19.5 25.5t14 16.5q33 43 68 85t79 92.5t72 84.5q22 26 56.5 70.5t54.5 69t51 56.5t63 58q3 2 15 2q59 9 52 -32q-8 -49 -88 -136q-2 -3 -5 -6q-167 -192 -285 -322q-3 -4 -20.5 -28t-35 -47t-38.5 -47.5t-38.5 -38.5t-27.5 -11 q-20 5 -29 16.5t-5.5 27.5zM226 753q-14 30 0.5 57.5t52.5 23.5q33 -4 41.5 -33t-7.5 -55.5t-43 -24.5q-30 2 -44 32zM554.5 409q0.5 31 33.5 40q34 11 60 -27q26 -37 12 -67q-8 -20 -33 -23q-27 -4 -50 21t-22.5 56z" />
<glyph unicode="&#x26;" horiz-adv-x="727" d="M47 141q3 29 19.5 57t38 47.5t42.5 34.5t35 22l15 7h-1l-44 27q-16 10 -26 19t-13 17.5t-4.5 14t3.5 12.5t7 9.5t10.5 9.5t9.5 8q9 9 77 44.5t132 67.5l64 31l45 308q5 7 24.5 17.5t32.5 6.5q17 -4 28.5 -19.5t6.5 -27.5q-8 -19 -23 -115.5t-8 -107.5q10 -5 22.5 -3.5 t35.5 8t28 7.5q4 4 9.5 1t8 -3.5t7 -6.5t6 -8.5t5.5 -9t5 -8.5q6 -14 -2.5 -30t-28.5 -23l-120 -49l-9 -92q158 39 187 45q3 0 12 1.5t11.5 1.5h9t9 -2t7 -5.5t8 -9.5t6.5 -15q6 -17 -3.5 -33t-22.5 -23l-13 -7q-239 -55 -243 -78q-6 -49 -9.5 -84.5t-4 -59t-1 -37t2.5 -21 l4 -10t6.5 -5t7.5 -4.5q13 -8 105 41.5t110 64.5q40 25 84 37q42 12 33 -15q-5 -14 -25 -40q-22 -31 -100.5 -72t-154.5 -73t-81 -36q-15 -8 -18 -146.5t4 -174.5q1 -18 -1 -29t-8 -15.5t-10.5 -5.5t-13.5 -1q-31 4 -43 35q-5 12 -5.5 93t1.5 155l2 75q-18 -17 -137 12 q-92 24 -126 59.5t-28 108.5zM130.5 119.5q0.5 -6.5 4.5 -16t12 -19.5q16 -20 64.5 -31.5t85 -11t47.5 3.5q5 4 7.5 56.5t2.5 103.5v51q-190 -72 -200 -90q-1 -1 -7 -8.5t-8 -11t-5.5 -12t-3 -15zM260 387q10 -8 63 -0.5t60 12.5q4 2 5 17.5t0 29.5l-1 15q-20 -3 -53.5 -19 t-57 -33t-16.5 -22z" />
<glyph unicode="'" horiz-adv-x="204" d="M9 1218.5q1 96.5 44 131.5q6 3 22 6t37 4t35 -11.5t11 -39.5q0 -1 2.5 -41t4 -87t1 -98t-7.5 -87t-21 -42q-47 -20 -88 74t-40 190.5z" />
<glyph unicode="(" horiz-adv-x="559" d="M129 677.5q18 156.5 63 300t105 222.5q28 37 72 61q58 31 61 -21q1 -19 -6 -48q-8 -33 -41 -92.5t-41 -79.5q-49 -131 -79.5 -273.5t-29.5 -263.5q1 -65 23.5 -148.5t40.5 -115.5q1 -1 3 -4q50 -83 87 -115q9 -7 28.5 -17.5t34 -19.5t27 -20.5t11 -24.5t-18.5 -26 q-25 -15 -61 -3t-75.5 42t-66 54.5t-33.5 33.5q-72 91 -97 246.5t-7 312z" />
<glyph unicode=")" horiz-adv-x="454" d="M53.5 -58q-1.5 13 11 24.5t27 20.5t34 20t28.5 18q32 28 90 118q18 31 40 115t23 150q1 121 -29 263.5t-79 272.5q-8 20 -41 79.5t-41 92.5q-20 83 24 80q36 -3 86 -52l17 -20q59 -79 104 -222.5t63.5 -300t-7 -312t-97.5 -246.5q-11 -15 -52 -51.5t-98.5 -67t-84.5 -8.5 q-17 13 -18.5 26z" />
<glyph unicode="*" horiz-adv-x="792" d="M11 590q-24 41 1 54l13 3q92 8 146.5 17.5t63.5 15.5l9 6l-117 223q1 3 3 8.5t9 17t16 18t24 6.5t32 -11q6 -4 32.5 -47t50.5 -84l23 -41q5 8 13 20.5t30.5 45t43 57t44.5 45t41 21.5q50 3 74.5 -8t11.5 -44q-6 -15 -15.5 -22t-18.5 -8t-22 -8t-25 -21l-86 -121l368 35 q4 -2 9.5 -5t16.5 -11t14.5 -14.5t-5.5 -13t-35 -9.5q-44 -4 -132 -24.5t-154 -38.5l-66 -19q4 -6 10.5 -16t26.5 -36.5t39.5 -47.5t46.5 -39t51 -21q20 -2 40 -6q11 -1 11 0q1 0 0 2q2 -4 5 -9.5t6 -20.5t1 -26t-15.5 -19.5t-39.5 -6.5t-62 22t-70 48t-63 54.5t-49.5 47.5 t-21.5 21q-5 6 -13 4.5t-10 -6.5q-4 -8 -11 -20.5t-26 -46t-35.5 -59.5t-34.5 -49t-28 -26q-31 -12 -46.5 2t1.5 51l80 154q-15 -4 -38.5 -9.5t-69 -14.5t-58.5 -7q-21 4 -40 37z" />
<glyph unicode="+" horiz-adv-x="839" d="M2 711q-6 10 2 35.5t19 33.5q21 6 44 4t58 -7t43 -5q14 1 36 6t32.5 6t33.5 -4q9 80 6 144l-6 34q-7 33 -7 63.5t13 39.5q14 14 38 4.5t36 -18t17 -13.5q5 -7 6 -29.5t0 -57t0 -50.5q1 -7 1.5 -30.5t2 -40t4.5 -19.5q7 -8 27 -9t39 2t44.5 7.5t32.5 5.5q169 25 242 29 q52 5 81 2.5t30 -23.5q0 -8 -6 -16t-18 -14.5t-25 -13t-31 -12.5t-33 -10.5t-33 -8.5t-29 -6.5t-24 -5.5t-14 -3q-32 -6 -98.5 -10t-114 -11.5t-64.5 -25.5q-16 -18 -16.5 -93t-1.5 -150.5t-17 -94.5q-4 -5 -21 -10t-38 0t-29 24q-19 55 -9.5 100t20.5 110.5t1 105.5 q-29 4 -96 -1.5t-114 0.5t-64 36z" />
<glyph unicode="," horiz-adv-x="405" d="M4 -362q9 16 32 56t34 60.5t27 58t21.5 66t5.5 67t-9 77.5q-3 12 -12 30t-17.5 34t-15.5 33t-6.5 31t10.5 23q29 25 65 -10.5t51 -79.5q24 -63 31.5 -129t-6 -132t-51.5 -110q-92 -103 -160 -75z" />
<glyph unicode="-" horiz-adv-x="598" d="M7 700.5q1 34.5 38 49.5q17 7 42.5 8.5t52.5 -0.5t65 0q16 1 32.5 1t46.5 -0.5t58 -0.5q5 0 23.5 0.5t35 0.5t35.5 -0.5t32 -2.5t17 -6q20 -18 21.5 -30t-15.5 -19.5t-36 -11t-52 -7.5q-29 -3 -91.5 -12.5t-105 -15.5t-97.5 -9t-70 8q-33 13 -32 47.5z" />
<glyph unicode="." horiz-adv-x="233" d="M22 53q-22 43 19 66t73.5 -8.5t22.5 -67.5q-15 -48 -60 -35q-37 11 -55 45z" />
<glyph unicode="/" horiz-adv-x="694" d="M10 45q-12 32 6.5 93.5t56 145.5t46.5 111q43 124 131.5 390t109.5 327q25 69 57.5 135t59.5 84q39 27 84 0.5t27 -69.5q-5 -12 -34 -31t-36 -31q-11 -19 -22 -48t-23 -67t-16 -49q-141 -398 -172 -483q-12 -34 -39.5 -113t-42.5 -121q-5 -12 -23 -56.5t-26 -66.5 t-17 -53.5t-10 -50.5q-1 -10 3 -25.5t7.5 -27.5t1.5 -14q-14 -23 -40.5 -30.5t-52 6t-36.5 44.5z" />
<glyph unicode="0" horiz-adv-x="753" d="M20 447.5q13 106.5 47 193.5t69.5 148.5t63.5 94.5l27 34q31 17 54.5 18t34 -9.5t18 -24.5t7 -27.5t-0.5 -18.5q-2 -4 -20 -22q-6 -5 -1.5 -5t21.5 5q15 2 70 22q64 26 125.5 20.5t101.5 -38.5q23 -18 42.5 -46t36 -70t14.5 -102t-25 -126q-23 -62 -72.5 -124.5 t-115 -115t-108 -82.5t-93.5 -62q-4 -3 -7 -4.5t-6 -3.5q-31 -18 -74 -23.5t-85.5 3t-76 43.5t-42.5 92q-18 124 -5 230.5zM114.5 361q-1.5 -35 2.5 -65.5t9 -44t12 -28.5t7 -16q6 -14 8.5 -19t19.5 -15.5t39.5 -6.5t67 24.5t103.5 61.5q196 141 240 287q4 11 8.5 36.5 t5 64.5t-8 72.5t-37.5 55t-77 16.5q-61 -8 -110 -26.5t-76 -40.5t-45.5 -42.5t-24.5 -34.5l-6 -13l-3 -3t-7.5 -5.5t-10 -5.5t-9.5 0t-7 8q-4 11 -10.5 15t-11.5 2l-5 -1l-4 -1q-10 -8 -28 -65q-19 -65 -29.5 -120t-12 -90z" />
<glyph unicode="1" horiz-adv-x="194" d="M27 897q2 5 6.5 12t16 20.5t22 18t23 -7t20.5 -43.5q-20 -727 0 -780q24 -65 -5 -101q-20 -25 -41 -11q-27 17 -22 81q1 14 -1.5 63.5t-5.5 96t-3 49.5z" />
<glyph unicode="2" horiz-adv-x="837" d="M27 106q2 32 54.5 95t113 118t119.5 106.5t63 55.5q7 8 99 84q138 114 132 157q-5 36 -100 32q-24 0 -106.5 -17.5t-135.5 -36.5q-218 -80 -203 -10q2 9 7 19q16 33 35.5 53t48.5 31t53.5 16t71.5 12.5t81 14.5q23 4 65.5 13t60.5 12t50 7t49.5 1t42 -9.5t44.5 -21 t41 -35.5q28 -44 -9 -113.5t-115.5 -146.5t-164 -151t-167.5 -149.5t-112 -119.5q43 -16 107 -10t122 20t132.5 16.5t138.5 -20.5q8 -3 34 -11q121 -39 135 -66q8 -16 -15 -32q-3 -3 -66 5t-142 17.5t-110 10.5q-61 2 -151.5 -24t-216.5 -21q-20 1 -33.5 4.5t-28 13 t-21 29.5t-3.5 51z" />
<glyph unicode="3" horiz-adv-x="854" d="M47.5 353q-6.5 16 3.5 37t37 40l381 242l7 12q6 21 -31 31q-77 22 -318 -6q-29 -4 -42.5 5t-12 24.5t6.5 31.5t12 28l7 11q9 3 24.5 7.5t66.5 11.5t105 6.5t133.5 -15t156.5 -45.5q25 -11 31 -45.5t-13 -74t-59 -60.5q-19 -7 -82.5 -48t-67.5 -42q-14 -7 -10 -14 q5 -6 23 -3q21 5 69 9.5t126 2.5t134 -18q60 -15 83.5 -52t7 -81t-65.5 -82q-78 -60 -272.5 -156.5t-258.5 -103.5q-5 -1 -14.5 -2t-15.5 -2t-14.5 -1.5t-14 -0.5t-11 1t-9 4t-5.5 7q-6 22 0.5 51.5t24.5 40.5q11 7 24.5 7t21.5 -3l7 -4q16 6 43.5 17t100 42.5t131 61 t114.5 67t74 66.5q19 31 -43 44q-54 11 -115 6q-5 -1 -42.5 -6.5t-74 -12t-84.5 -17t-96 -24.5t-86 -31q-19 -8 -40.5 -6.5t-36 14t-21 28.5z" />
<glyph unicode="4" horiz-adv-x="886" d="M28.5 375q2.5 22 10.5 37l8 16l481 516q1 56 11 66q26 17 48.5 15t36.5 -13l15 -11l-6 -538q10 2 28.5 5.5t77 8.5t119.5 4q38 0 54.5 -9.5t12.5 -22.5t-14 -26t-21 -23l-11 -9l-244 -24q-2 -152 0 -191q1 -13 8.5 -33.5t16 -36t18 -33t10.5 -18.5q2 -4 2 -15 t-17.5 -21.5t-45.5 -8.5q-33 3 -57.5 37.5t-35.5 81.5t-17 93.5t-7 79.5v32q-189 -25 -367 -43q-51 -4 -79.5 8t-33 33t-2 43zM192.5 402.5q9.5 -10.5 43.5 -7.5q61 7 107.5 13.5t76 11.5t48 8.5t29 8l14 6t7 6.5t4.5 6q5 7 8.5 79t3.5 140l1 69q1 24 -6.5 29.5t-14.5 -0.5 l-8 -6l-277 -293q-6 -6 -13.5 -14.5t-20 -27t-3 -29z" />
<glyph unicode="5" horiz-adv-x="888" d="M4 422l164 469l442 8q4 -4 9 -10.5t15.5 -23.5t13.5 -30.5t-6.5 -26.5t-35.5 -17q-12 -1 -108 2.5t-169.5 -1.5t-80.5 -26q-9 -21 -31 -91t-39 -130l-18 -60v-3q12 -10 143 10h1h1q75 10 151 17.5t115 10.5l39 2q2 -2 25 0.5t61.5 -3t75.5 -14.5t67.5 -33t37.5 -58 t-10.5 -70.5t-47.5 -65.5t-69.5 -56.5t-70.5 -44.5t-56 -27q-11 -4 -63.5 -26.5t-98.5 -41t-101.5 -39.5t-98 -32t-62.5 -9q-29 4 -44.5 18.5t-18 30t-1.5 39.5q4 16 22.5 18t34.5 -4l17 -6q12 3 33 8.5t83 25.5t121 44.5t135 66t136 87.5q23 18 34 32.5t9 24t-6.5 15.5 t-20 10.5t-23.5 6t-24 3.5q-52 5 -229.5 -8.5t-337.5 -48.5q-7 0 -24 2.5t-40.5 8t-38.5 18t-12 28.5z" />
<glyph unicode="6" horiz-adv-x="753" d="M27 489q43 249 78 345.5t75 130.5l44 2q80 -4 49 -62l-1 -2q-47 -92 -91 -256.5t-48 -367.5q-1 -62 15 -104.5t39.5 -58.5t47.5 -24t41 -6l17 2q-2 7 -4 20t-3 51.5t4.5 75.5t26.5 87t56 92q33 43 65.5 75.5t54.5 47.5t39.5 24t25.5 11l9 1q5 1 14.5 1.5t34 -0.5t45.5 -6 t43.5 -18.5t33.5 -34.5t9 -57.5t-22 -84.5q-20 -47 -56 -96t-71.5 -85.5t-70.5 -67.5t-55 -46t-23 -17q-2 -2 -3 -22.5t-8 -26.5l-4.5 -4.5t-6 -6.5t-7.5 -7.5t-8 -6.5t-7.5 -4.5t-7.5 -2t-6 1.5q-2 2 -7.5 6.5t-9 7.5t-8.5 5.5t-10 2.5q-4 0 -27 -6.5t-46 -7.5 q-3 0 -21 -2.5t-26 -3t-26 1t-30.5 7t-29 17t-31.5 29.5q-141 167 -92 450zM391 141h15q9 6 23 17.5t52 45t69 66t60.5 75t38.5 77.5q8 34 -16 42.5t-53 -3.5q-17 -7 -29 -12.5t-38 -24.5t-45 -42.5t-40 -65t-33 -93.5q-18 -77 -4 -82z" />
<glyph unicode="7" horiz-adv-x="712" d="M39.5 858q22.5 39 52.5 43q15 3 64.5 -15t85.5 -22q33 -4 114 5.5t146 21.5l65 12q5 -1 13.5 -3t31 -8.5t38.5 -15.5t29.5 -20.5t11 -26.5t-22.5 -32q-41 -34 -74 -80t-58.5 -103.5t-41.5 -100.5t-37 -109q-2 -5 -3 -8.5t-2.5 -8t-2.5 -8.5q-22 -66 -28.5 -129.5t-3 -99 t10.5 -52.5q6 -10 19 -23.5t21 -24.5t7 -21q-3 -19 -32.5 -24.5t-63.5 5.5q-31 10 -52.5 77t-23.5 128q-4 64 80 336q58 154 94 203q10 18 5.5 25.5t-16.5 8.5h-11q-105 -10 -183 -18q-55 -9 -119 -2t-100 29t-13.5 61z" />
<glyph unicode="8" horiz-adv-x="800" d="M43 94q-75 158 106 261q21 12 59 30q47 23 47 30q0 5 -13 9q-184 50 -72 258q26 48 76 88t102.5 63t102 39.5t81.5 22.5l31 6q4 0 11.5 -1.5t29 -7t40.5 -13.5t43 -23.5t41 -34.5t28.5 -49t11.5 -65q0 -46 -28 -87t-66.5 -66.5t-76 -45.5t-58 -31t-11.5 -16 q72 -36 123 -73.5t78.5 -67.5t39 -63.5t13 -55t-9 -50.5t-17.5 -41t-22 -34q-18 -26 -117 -47.5t-216 -29t-223.5 16t-133.5 78.5zM137.5 169q-0.5 -18 18 -38.5t55.5 -40.5q38 -20 104.5 -22.5t129.5 7.5t109 20.5t58 15.5q51 16 67 37q34 43 -30 120q-27 34 -58 55 t-55 26.5t-44.5 6.5t-31.5 -2l-11 -4q-3 -2 -15 0.5t-42 -4.5t-63 -17.5t-78 -38.5t-87 -67q-12 -11 -19 -23.5t-7.5 -30.5zM225 565q-6 -23 5 -36.5t26 -16.5l14 -2q11 0 30 0.5t71.5 7t97 18t92 36t72.5 57.5t33.5 59.5t2.5 40.5t-15 23t-18 12l-9 2q-204 -27 -267 -47 q-42 -12 -81.5 -62t-53.5 -92z" />
<glyph unicode="9" horiz-adv-x="815" d="M18 629q-7 73 77 160.5t204 146.5q53 27 71 36t44 17t28.5 8h33.5h50q38 0 57.5 -19t22.5 -41t8.5 -38t18.5 -12q20 7 37 18.5t24 14.5q27 11 42 8t21 -16t6.5 -27t-1.5 -25l-2 -12q-47 -53 -53 -94q-28 -144 -42 -265.5t-14 -202.5t3.5 -133.5t10 -95t7.5 -51.5 q3 -47 -15.5 -66.5t-40.5 -15.5q-16 0 -26 15t-27 65q-11 53 -10.5 192.5t6.5 287.5l6 147q0 3 -2 6.5t-13 4t-28 -12.5q-176 -132 -327 -146q-91 -7 -131 30t-46 116zM123 600q-4 -57 117 -27q50 15 107.5 47t103 67t84 67.5t59.5 53.5l22 21q1 7 -6 10.5t-16 0.5 q-14 -9 -45 -2q-6 2 -23.5 28t-36.5 27q-29 2 -121.5 -41.5t-154.5 -93.5q-19 -16 -33.5 -28.5t-24 -26t-15 -20t-9 -21t-4 -18.5t-2.5 -22t-2 -22z" />
<glyph unicode=":" horiz-adv-x="292" d="M58 598.5q2 23.5 22 36.5q34 22 62 -5t26.5 -62.5t-25.5 -49.5q-22 -7 -43 5t-32.5 32t-9.5 43.5zM72 309q-26 41 8 65q6 4 14 7q34 13 61 -11t21 -59q-9 -49 -49 -42q-34 6 -55 40z" />
<glyph unicode=";" horiz-adv-x="292" d="M18 -403q-1 17 60 65t63 51q20 32 35 77.5t6 80.5q-3 14 -23 33t-42 35.5t-42 36.5t-23.5 35t14.5 32q30 22 67 5t71 -53.5t59 -79t30 -71.5q8 -42 -11.5 -94t-43.5 -86q-2 -5 -11 -17.5t-28.5 -36.5t-42 -39t-52.5 -24t-59 7q5 -2 1 2l-4 4q-24 25 -24 37zM21.5 267 q-6.5 35 37.5 59q30 10 47 0q21 -13 29.5 -68t-14.5 -70q-21 -13 -57 15.5t-42.5 63.5z" />
<glyph unicode="&#x3c;" horiz-adv-x="811" d="M53 613q-18 42 21 79q4 3 21 5.5t30 7.5q26 11 61.5 34t83.5 57.5t74 51.5t68.5 51t77.5 55.5t71 28.5q16 2 37 0.5t38 -17.5t15 -40q-1 -22 -43.5 -50.5t-102 -58t-69.5 -35.5q-203 -127 -203 -149q-2 -8 43 -34t111.5 -60t79.5 -41q34 -18 100.5 -46.5t108 -52 t63.5 -51.5q-1 1 0 -1q0 -1 1 -2q20 -41 5 -56q-16 -10 -31.5 -9.5t-34.5 10.5t-33 20.5t-25.5 20.5t-12.5 11q-29 16 -119.5 56.5t-119.5 54.5q-18 9 -55.5 28.5t-55.5 28.5q-14 7 -39 20.5t-37 19.5t-30 12t-33 7q-48 2 -66 44z" />
<glyph unicode="=" horiz-adv-x="843" d="M1 783q4 23 19 36q12 9 166 15q17 1 75 3.5t81.5 3t69.5 -1t90 -5.5q7 -1 35.5 -3.5t44 -4.5t37 -6.5t32 -11t11.5 -15.5q1 -12 -14.5 -21t-46 -14.5t-61.5 -9.5t-74.5 -6t-71.5 -3t-66 -1.5t-45 -0.5q-37 -2 -111.5 -13.5t-111.5 -9t-54 28.5q-9 17 -5 40zM120.5 603 q-8.5 31 4.5 44q11 14 39 21.5t53 9t63.5 2.5t49.5 2q15 1 38 3t47.5 3t59.5 0q34 -1 78.5 -5t94.5 -11.5t81.5 -21t28.5 -29.5q-3 -13 -15.5 -21t-36.5 -10t-40 -2t-46 2t-34 2q-213 8 -353 -14q-10 -1 -29.5 -6.5t-28.5 -7.5t-23 1q-23 7 -31.5 38z" />
<glyph unicode="&#x3e;" horiz-adv-x="686" d="M39 856q-36 37 4 57q39 3 96.5 -22.5t127.5 -69t87 -51.5q8 -4 37 -17t44.5 -21t42.5 -22t42 -26t30.5 -26.5t21 -30t1.5 -31.5q-2 -14 -17.5 -36.5t-29 -38.5t-39 -44t-28.5 -31q-4 -4 -34 -37.5t-59.5 -65t-63.5 -66.5t-60 -55.5t-35 -18.5q-25 3 -40.5 25t-15 45 t8.5 38q18 23 108 106t119 115q7 7 21 21.5t18.5 20t12.5 17t7.5 17.5t-2.5 16t-12 19t-26 19q-7 5 -66 30q-250 109 -301 164z" />
<glyph unicode="?" horiz-adv-x="653" d="M29 954q-97 66 112 113q64 14 176 29q31 4 63.5 5t70.5 -1.5t69.5 -9.5t60 -20.5t44 -34t20.5 -49.5t-12 -68q-19 -53 -77 -123t-115.5 -125t-106 -113.5t-53.5 -93.5q-1 -10 -2 -25.5t-1 -27t-1.5 -26t-5 -22t-10.5 -15t-18 -6.5t-28 5q-34 9 -44 53.5t5 96.5 q11 44 50.5 98.5t83 97t92.5 94t71 84.5q114 122 -35 137q-67 7 -166 -8q-26 -3 -67 -14.5t-70 -21t-62.5 -14.5t-43.5 5zM204.5 89.5q9.5 28.5 39.5 41.5q39 17 65 -23q23 -36 9 -73q-15 -40 -68 -31q-29 6 -42 31.5t-3.5 54z" />
<glyph unicode="@" horiz-adv-x="1013" d="M154 524q12 42 74 96.5t133.5 97.5t127 73t64.5 32q2 1 40.5 14t46.5 15.5t44.5 12.5t52.5 11.5t51 5t60 0t59 -10t68 -17.5q61 -23 106 -86q61 -97 41 -219t-85 -233.5t-148 -180.5q-11 -9 -23 -17t-36 -22t-45 -20t-48.5 -9.5t-48.5 7.5q-24 11 -39 32.5t-28.5 53 t-24.5 47.5q-17 -18 -37.5 -35.5t-48.5 -38.5t-55.5 -32t-54 -14.5t-49 11.5t-36.5 49q-27 66 0.5 154t88.5 156.5t126 87.5q35 11 81 13t67 -11q24 -15 32.5 -34.5t5 -34t-11 -33t-8.5 -23.5q-1 -8 -15 -42t-15 -42q0 -9 11 -64t19 -67q40 -52 105 -15t124 104t83 120 q28 61 38.5 124.5t-8 122.5t-69.5 85q-54 28 -133.5 32.5t-165.5 -14.5t-169.5 -54t-154.5 -88t-113 -114q-8 -13 -17.5 -42t-31.5 -67q-54 40 -30 123zM394 194q17 -17 63 -1q18 7 45.5 35t53 65.5t38.5 82.5t2 79q-36 -3 -111 -45q-34 -24 -71 -96q-48 -93 -20 -120z" />
<glyph unicode="A" horiz-adv-x="866" d="M8 -4q1 39 28 114t54 130l27 55l-49 -4q-10 1 -26 17.5t-22 39.5t23 45q25 20 58 36t53 22l20 6l301 768q2 3 5 8.5t12.5 20t19 25.5t24.5 20t29 10h2q13 0 29 -11q16 -12 31 -38q31 -55 44 -227.5t15 -316t8 -143.5q9 0 39 11.5t56 22.5l26 11q5 0 13 0.5t26 -2t28 -8.5 q8 -4 7 -14q-1 -3 -1 -5q-2 -14 -24 -34q-35 -33 -72 -55t-57 -28l-20 -5q38 -287 67 -326q11 -15 16 -22t14 -23t10.5 -26.5t0.5 -24t-11.5 -25t-29.5 -20.5q-22 -11 -37.5 -14t-24 3t-12.5 13t-9 21t-9 20q-9 16 -32 109.5t-42 179.5l-18 86l-336 -101 q-111 -324 -123 -340q-14 -20 -43 -20q-4 0 -10 1q-38 4 -78 38zM307 485l275 64q-13 389 -15 422q-2 39 -10.5 84t-21.5 53q-19 -13 -64 -121q-22 -74 -63 -199.5t-71 -213.5z" />
<glyph unicode="B" horiz-adv-x="1130" d="M20 805q6 13 40 41t65 50l31 22q-23 168 -27 219q7 38 24 51q11 8 22 8q7 0 15 -3q20 -8 43 -32q4 -8 9.5 -53.5t9.5 -87t6 -41.5q11 5 72.5 43t133 70t142.5 43q61 7 107 7q41 0 71 -6q62 -12 77 -50q9 -21 9 -45q0 -17 -5 -37q-12 -46 -43.5 -98t-64 -93.5t-57.5 -70.5 l-26 -29q56 8 106 9q45 0 86 -8q85 -14 142.5 -48.5t83.5 -84.5q19 -35 19 -74q0 -16 -3 -32q-10 -53 -133.5 -153t-273 -191t-285.5 -159q-130 -65 -169 -64h-3q-27 2 -37 15t-4.5 30t14 33t17.5 28l10 11l-13 264q-45 -26 -100 -51q-30 -8 -44.5 -3t-16 25t1 33.5 t6.5 23.5q3 8 36 34.5t65 49.5l32 23l-31 373q-9 -8 -23 -20t-44.5 -31t-46.5 -17q-26 1 -42 27q-9 15 -9 29q0 10 5 20zM268 862l33 -356q58 25 207.5 183.5t226.5 262.5q12 21 18 37.5t8 28.5t-2.5 20t-9.5 13t-17 7t-20.5 2t-24.5 -1.5t-24.5 -3l-25.5 -4.5t-23 -4 q-43 -5 -129.5 -51.5t-151.5 -89.5zM322 356l18 -274q20 9 55 24.5t128.5 61t171 87.5t156.5 95t112 92q17 22 21 47q1 7 1 14q0 19 -7 35q-10 24 -42 42t-82 24q-50 8 -88 10h-14q-28 0 -54 -6q-30 -6 -52.5 -15.5t-53.5 -27.5q-51 -28 -152.5 -108.5t-117.5 -100.5z" />
<glyph unicode="C" horiz-adv-x="817" d="M12 541q10 115 49 224.5t122.5 214.5t201.5 177q25 15 58 15h6q37 -2 78.5 -25t73 -77t46.5 -144q7 -42 7 -95q0 -59 -10 -131q-1 -20 -23 -23t-54 11q-10 5 -12.5 47t-5.5 95.5t-14 104.5t-47 80q-25 21 -62 21q-15 0 -33 -4q-43 -9 -103.5 -86.5t-103.5 -159.5 t-53 -124q-7 -29 -13.5 -65.5t-10.5 -98.5q-2 -31 -2 -61.5t2 -58.5q4 -57 25.5 -116.5t59.5 -99.5t108 -59q40 -11 88 -10q35 0 75 5q66 10 117 31t71.5 37.5t43 41t24.5 25.5q14 12 39 2.5t32 -29.5q1 -4 1 -9q0 -18 -21 -41q-49 -44 -148 -93t-159 -55q-29 -3 -60 -3 q-41 -1 -87 5q-80 10 -125 37q-61 34 -105 109q-46 74 -66 172q-14 66 -13 139q0 36 3 74z" />
<glyph unicode="D" horiz-adv-x="1101" d="M14 916q10 28 23 34q17 8 84 44t86 48q9 5 10.5 13t-1.5 19t-6.5 38t-2.5 59q1 19 10.5 29.5t23.5 10.5t28 -4t23.5 -12t10.5 -15q9 -91 13 -100q8 -17 30 -11q98 27 205 29q6 0 11 -1q101 1 194 -25q98 -28 169 -87t99 -153q12 -41 11 -90q0 -62 -19 -136 q-29 -108 -111 -212.5t-176.5 -178t-201 -136.5t-176 -94.5t-111.5 -45.5q-22 -7 -40 -7h-12q-22 4 -34.5 17.5t-20.5 31.5t-7.5 36t1.5 32q3 21 29 53t50 54l25 22l-12 733q-103 -49 -158 -61q-36 -8 -46 15q-5 12 -5 25q-1 12 4 26zM326 942l18 -811q0 -4 2 -8.5t14 -10.5 q3 -1 7 -1q12 0 32 16q1 1 28.5 17t48.5 29.5t59 38t69 48t70.5 54.5t72 62.5t63.5 66.5t55 72.5t38 74.5q27 70 35 126q3 20 2 40q0 34 -8 66q-13 50 -57 85.5t-119 57.5q-71 19 -147 23q-19 1 -37 1q-54 1 -97 -7q-58 -10 -94.5 -20.5t-54.5 -19.5z" />
<glyph unicode="E" horiz-adv-x="985" d="M4 909q1 16 10 39q4 8 24.5 20.5t27.5 12.5q1 0 -7 27t-13 61q-1 8 -1 16q0 26 12 50q11 19 36 21q7 1 13 1q17 0 31 -5l19 -7l16 -127q406 86 551 115q42 8 61 3.5t21.5 -17.5t-3 -27t-12.5 -24l-8 -11q-602 -127 -604 -152q-1 -3 -1 -13q0 -19 3 -62q4 -65 8 -125 l5 -60q439 162 595 219q50 19 78.5 19t34.5 -19q8 -24 -22 -54q-9 -9 -19 -15q-23 -13 -184.5 -77t-311.5 -122l-151 -57q-1 -10 -2.5 -27.5t-1.5 -67.5t4.5 -94t18.5 -96t36 -86t64 -52q24 -10 52 -10q21 0 44 5q49 12 105 48.5t94.5 72t106.5 102.5t102 98q60 54 81 54 q11 0 11 -16q0 -31 -33 -83l-12 -16q-1 -1 -31.5 -38.5t-56.5 -67.5t-73.5 -76t-91 -79.5t-100.5 -62.5t-110 -39q-37 -6 -68 -6q-17 0 -32 2q-43 6 -73 23t-49.5 39.5t-30.5 48t-16.5 46.5t-6.5 35l-1 13q-29 301 -47 307q-27 11 -36 23.5t-3 22t15.5 17t19.5 11.5l10 4 l-22 297l-6 -3t-14.5 -5.5t-19.5 -5t-18 0t-14 8.5q-4 6 -4 18v5z" />
<glyph unicode="F" horiz-adv-x="870" d="M4 946q10 40 76 74q-2 5 -5 15t-9 40q-6 31 -10 61q-2 19 -3 43q0 14 1 29q2 42 12 80q10 40 26 52q9 7 17 6q7 0 14 -4q16 -10 26 -21t17 -23q5 -8 7.5 -74t4.5 -129t6 -65q4 -3 55 16.5t128.5 49t124.5 43.5q93 28 221 42q58 6 103 6q55 0 93 -9q31 -10 62 -30t41 -38 q3 -6 4 -10q0 -11 -18 -17q-11 -4 -33 -4q-27 0 -70 6q-22 3 -48 3q-62 0 -149 -18q-123 -26 -231.5 -66t-188.5 -74.5t-88 -42.5q-4 -12 -4 -43q0 -20 2 -48q4 -71 14 -150l9 -79q506 236 598 248q8 1 16 1q41 0 66 -30q25 -29 5 -54q-17 -20 -62 -21q-60 -1 -203.5 -54 t-269.5 -126t-128 -119q-5 -88 -5 -153v-44q2 -78 4.5 -95.5t11 -58.5t14.5 -88q2 -15 2 -28q0 -49 -26 -60q-11 -5 -22 -5q-22 0 -44 18q-36 26 -37 49l-41 917q-6 -1 -12 -1q-29 -1 -54 19q-23 18 -23 46q1 8 3 18z" />
<glyph unicode="G" horiz-adv-x="1112" d="M4 448q11 74 40 148t73 137t91.5 119.5t96 100t86.5 75.5t62 49l24 17q3 3 8.5 8t22 14t32.5 12q6 2 12 2q11 0 24 -4q20 -6 36 -26q8 -10 23 -28q18 -21 25 -30t10 -19.5t-5 -16t-26 -11.5q-15 -4 -30 -4q-18 0 -37 5q-35 10 -44 8q-12 -4 -24 -11.5t-18 -13.5l-5 -6 q-13 -12 -35.5 -33.5t-80 -83.5t-103.5 -121t-86.5 -133.5t-48.5 -132.5q-4 -25 -4 -50q0 -12 1 -25q3 -36 8.5 -72t20 -66.5t33 -56.5t46.5 -42.5t60 -24.5q20 -6 44 -6q15 0 32 2q42 6 89.5 23t106 52t122.5 86q11 9 54 37.5t61.5 47.5t13.5 36q-10 29 -43 163 q-10 -2 -49 -18q-113 -46 -155 -46q-8 0 -14 2q-15 5 -15 21q0 14 10 35q7 14 38 34.5t72 38.5t81 30q34 10 60 10h11q30 -3 35 -23q4 -22 9.5 -61.5t18.5 -87.5q8 -28 19 -39.5t23.5 -8.5t22.5 9.5t20.5 17l11.5 11.5q21 15 40 -4q22 -21 1 -52q-6 -8 -15 -16 q-3 -3 -19.5 -12.5t-26 -17.5t-16.5 -24.5t-3 -37.5q2 -9 3.5 -28t7 -33t20.5 -33q88 -119 88 -140t-17 -36q-18 -16 -49 2q-45 26 -104 163l-3 7q-4 7 -5.5 10.5t-6 11t-8.5 11t-9 8.5t-10.5 5.5t-12 0t-13.5 -6t-14 -14.5q-28 -36 -91.5 -83t-150.5 -88.5t-175 -62.5 q-42 -11 -83 -11q-44 0 -87 12q-83 23 -132 98q-50 79 -68 163q-12 52 -12 101q0 29 4 57z" />
<glyph unicode="H" horiz-adv-x="919" d="M35 1032q1 10 4 24t18.5 36.5t38.5 19.5q24 -2 38 -21.5t16 -38.5l2 -18l-13 -678l422 105q12 709 12 725q-1 12 -1 22q0 67 39 79q7 2 13 2q22 0 42 -21q16 -17 16 -37l-14 -735q112 28 190 51q36 9 48 -9q6 -9 7 -20q0 -10 -6 -22q-12 -24 -35 -33q-20 -8 -71.5 -21.5 t-92.5 -23.5l-42 -10l18 -420q2 -61 2 -93.5t-2 -35.5q-29 -44 -50 -44q-24 0 -38 58q-8 38 -10 80l-23 418q-399 -102 -422 -125q-1 -13 -1 -38q0 -38 2 -102q4 -108 10 -122q6 -29 6 -51q0 -58 -47 -58q-22 1 -34.5 31.5t-14.5 61.5l-1 30z" />
<glyph unicode="I" horiz-adv-x="272" d="M70 1169q6 44 13.5 56.5t35.5 21.5q6 2 11 2q4 1 8 -1q8 -4 11.5 -16t5.5 -21t3 -26.5t2 -21.5q3 -21 8.5 -537.5t5.5 -596.5v-10q0 -28 -4 -55q-6 -32 -20 -54q-11 -16 -26 -16q-5 0 -9 2q-19 5 -29 38.5t-10 63.5v31z" />
<glyph unicode="J" horiz-adv-x="849" d="M28 325q9 41 38 50q7 -1 12 1.5t10 -2t7.5 -5t6 -8.5t5 -12t4 -15.5t4.5 -19t5 -21.5t5 -25q14 -62 70.5 -129.5t119.5 -93.5q26 -6 47.5 -6t37 4t28.5 14.5t21 19.5t15.5 23.5t10.5 23t8 22.5q1 4 2 6q7 46 7 156q0 50 -2 112q-4 203 -16 423l-11 220l-236 -4 q-33 18 -27.5 40.5t21.5 39t27 20.5q10 5 238.5 10t291.5 5q27 0 38 -8q7 -4 7 -17q0 -7 -2 -16q-12 -52 -55 -58q-13 -2 -101.5 -4.5t-99.5 -5.5q-2 -5 -2 -26q0 -29 3 -87q6 -99 13.5 -214.5t8.5 -137.5q0 -6 4.5 -86t7.5 -147q1 -28 1 -60q0 -44 -3 -96q-3 -89 -14 -145 q-15 -48 -58.5 -80t-93 -42.5t-93.5 -10.5t-67 10q-51 22 -143 122.5t-100 161.5q-6 31 -6 57q0 22 5 41z" />
<glyph unicode="K" horiz-adv-x="985" d="M31 1210q0 2 1 5.5t5 13t10 16.5t18 13.5t27 7.5h12q31 0 45 -8q17 -10 17 -37l-2 -840q127 109 250 244q76 83 148.5 199t84.5 161q6 23 29 26t44.5 -6.5t29.5 -19.5q15 -22 15 -44q0 -27 -22 -54q-12 -15 -76.5 -107.5t-127.5 -179.5t-142 -172.5t-131 -108.5 q21 -39 186.5 -112t225.5 -82q29 -4 89.5 -7t106.5 -4l46 -1h6t13.5 -2t16.5 -5t13 -9t6 -15q0 -12 -4.5 -22.5t-21 -25.5t-48.5 -22q-31 -8 -85 -12q-17 -1 -36 -1q-43 0 -98 7q-43 4 -167 57t-227 103l-102 51l11 -307q0 -8 -1.5 -19t-15.5 -29q-12 -16 -32 -16h-5 q-26 1 -48 35.5t-33 81.5t-11 90z" />
<glyph unicode="L" horiz-adv-x="946" d="M33 1113q-1 27 33 45q22 11 44 12q14 0 29 -5q37 -12 39 -57q1 -106 11.5 -326.5t33.5 -459t49 -256.5q17 -3 41 -3q36 0 86 7q84 12 230 42t205 40q37 9 58 6t30 -13t9 -23.5t-5.5 -25.5t-12.5 -18t-37 -15t-87 -22.5t-109 -24.5t-139 -30t-140 -31q-7 -1 -33.5 -6.5 t-36 -7t-31.5 -4.5q-16 -2 -27 -2h-7l-30 2.5t-32.5 8t-29.5 15.5q-23 15 -49 178t-46.5 401t-30.5 360q-16 200 -15 213z" />
<glyph unicode="M" horiz-adv-x="1490" d="M22 14q2 8 3.5 14.5t7.5 10.5t10.5 6t12.5 3t12 1h11h7l14 -3q15 -4 29.5 1t36.5 23q17 14 68.5 77t122.5 167.5t138 220t117 248t58 237.5q4 44 23.5 65t36.5 20l18 -1q3 0 8 -0.5t17.5 -6t21.5 -16.5t16 -35t6 -57q-1 -30 -6 -136.5t-11.5 -222t-12 -241t-5.5 -194 t6 -80.5q7 0 26.5 15t52 49.5t71.5 84.5t85.5 127.5t92.5 168.5t94.5 217t89.5 265q40 143 73 143h2l7 -3q3 0 8 0.5t18.5 -1.5t24 -8t20 -21.5t11.5 -37.5q9 -92 9 -1145q0 -15 -15 -33.5t-33 -19.5q-22 -2 -43 11t-26 46q-4 23 -4 241v145q0 143 1 281l1 208 q-6 -17 -17 -46t-46 -113t-70 -162t-85.5 -174.5t-97 -169t-100 -128t-98.5 -67.5q-65 -15 -100 -15q-14 -1 -22 1q-34 8 -38 44q-4 21 -6.5 178t-3.5 304v147q-12 -25 -32 -68t-80 -156t-115.5 -203.5t-126.5 -176t-126 -109.5q-5 -2 -13 -6q-8 -2 -30 -8q-19 -5 -35 -5h-6 q-20 1 -41 13.5t-32 38.5q-7 15 -10 27q-2 8 -2 14q1 3 1 6z" />
<glyph unicode="N" horiz-adv-x="1060" d="M68 -4l36 1057q-1 32 10.5 47.5t23.5 15.5h12q4 1 10.5 0t26 -16.5t36.5 -46.5q17 -32 172.5 -234.5t302.5 -388.5l146 -186q29 776 33 866q-1 32 29 52q25 16 43 17q4 0 9 -1q10 -2 17 -4.5t16.5 -9.5t16 -21.5t10.5 -36.5q-5 -55 -19 -289t-25 -441l-11 -206 q24 -7 49 -23q14 -12 14 -29q0 -4 -1 -8q-4 -22 -21 -44q-8 -12 -18 -16t-16 -2l-5 1q4 -20 4 -37q0 -31 -13 -51q0 -4 -4 -13q-5 -8 -17 -18q-6 -5 -14 -5q-9 0 -20 5q-31 12 -42.5 27.5t-9.5 30t-1.5 40t-18.5 50.5q-70 111 -221 296t-267 314l-116 129q-39 -772 -39 -807 q0 -82 -63 -84h-3q-22 0 -34 16q-14 18 -16 36z" />
<glyph unicode="O" horiz-adv-x="774" d="M12 133q-10 73 -10 157q0 96 13 209q25 211 89 392q62 179 93 241t73 93l10.5 10.5t26.5 19.5t38 17q6 2 13 2q13 0 27 -6q22 -8 39 -35q7 -12 9.5 -24.5t1.5 -19.5l-1 -7q0 -3 2.5 -9t20.5 -18.5t47 -19.5q19 -5 47 -25.5t63 -56t63 -90.5t45 -121q12 -46 12 -104 q0 -26 -2 -54q-8 -90 -44 -188q-36 -99 -71 -176.5t-58.5 -122.5t-55 -85t-45.5 -54t-44.5 -40t-38.5 -34q-23 -21 -65 -31q-27 -6 -56 -6q-16 -1 -32 1q-48 6 -92 24.5t-77 60.5t-41 100zM109 188q5 -48 24 -80.5t43 -45.5t50 -16q10 -1 20 -1q15 0 28 3q21 5 33 13 q77 50 142 135.5t106.5 183t64.5 197.5q22 94 22 178v11q-2 89 -28 147q-24 53 -65 87q-41 36 -91 42q-12 2 -25 1q-37 -1 -75 -15q-50 -20 -95.5 -81t-74.5 -156q-84 -284 -84 -500q0 -54 5 -103z" />
<glyph unicode="P" horiz-adv-x="741" d="M-59 1042q-6 17 -6 33q-1 27 17 52q28 40 95 92q21 17 42.5 32t57.5 36.5t71 34.5q34 12 81 26q44 13 84 13h7q44 -1 97 -9q157 -34 223 -108q55 -63 56 -187q0 -23 -2 -47q-3 -62 -55 -138t-125 -142.5t-144.5 -122.5t-126 -94.5t-57.5 -43.5q-4 -6 -4 -33q0 -26 4 -76 q9 -98 22 -204t13 -115q0 -17 -20 -35q-13 -11 -27 -11q-8 0 -18 4q-24 10 -33 60q-17 82 -20 183.5t-3 163t-10 71.5q-36 31 -46 53t-5 54q1 14 8 21t14.5 9t14.5 6.5t8 14.5q3 20 3 44q-1 52 -15 125q-22 107 -48 183l-26 76q-7 13 -12.5 17.5t-10 0.5t-7.5 -9.5t-7 -13 t-6 -9.5q-30 -35 -51 -35q-20 0 -33 28zM166 1161q12 -51 29 -130t41 -231q17 -108 17 -162q0 -23 -3 -36q-5 -19 7 -19q9 0 27 10q26 15 58 42q11 7 29 19.5t66.5 50t88.5 73.5t78.5 83t52.5 85q18 53 21 100q1 9 1 18q-1 37 -11 70q-12 41 -47 69t-91 36q-50 8 -96 8 q-58 0 -110 -12q-96 -21 -158 -74z" />
<glyph unicode="Q" horiz-adv-x="1196" d="M25 299q-7 50 -7 106q0 67 10 143q18 138 51 245.5t63.5 183t41.5 84.5q1 14 4.5 24t7.5 13l3 4q50 32 83 42.5t45.5 5t28 -11t31.5 -1.5q12 3 70.5 21.5t106.5 30.5q44 11 71 11h4q90 -3 137 -16q186 -51 264 -256q25 -67 25 -137.5t-17 -126.5t-44 -109.5t-52.5 -89 t-45.5 -62.5q-23 -30 -23 -34q0 -24 104 -157q110 -141 174 -214q20 -25 27 -40q5 -10 5 -16q0 -2 -1 -4q-3 -6 -14 -12q-24 -21 -60 -21q-15 0 -31 3q-10 2 -42 42t-71.5 96t-77.5 111t-64.5 92t-28.5 34q-74 -92 -195.5 -172t-234.5 -117q-47 -15 -89 -17h-9q-37 0 -75 14 q-42 16 -75.5 51.5t-60 100.5t-39.5 156zM152 285q17 -185 181 -185h9q36 1 90 31t106 71.5t98 83t74 70.5l29 29q-102 207 -112 242q-2 8 -9.5 23.5t-11.5 27.5t-4.5 28t11 31t34.5 29q29 13 51 -5.5t30 -43.5l7 -25q1 -4 3 -10t8 -25t12.5 -36.5t14.5 -40.5t15 -41.5 t13.5 -34.5t11.5 -24t8 -7q60 79 92 154t36 134q1 14 1 27q0 44 -10 84q-13 52 -39.5 89.5t-59 66t-64 43.5t-58.5 19q-18 4 -42 4q-40 0 -99 -12q-94 -20 -170.5 -57t-79.5 -67q-1 -28 -24 -53.5t-46 -36.5l-22 -12q-29 -118 -52 -184q-15 -53 -26 -179q-7 -91 -7 -159 q0 -26 1 -49z" />
<glyph unicode="R" horiz-adv-x="1042" d="M8 1096q1 3 3.5 7.5t12.5 14.5t22 15t32 2t43 -17q16 -9 26.5 -2.5t15.5 18.5l5 13q3 5 9 12.5t30 29.5t53.5 41t82.5 41t114 36q32 7 61 7q20 0 38 -4q44 -8 77.5 -30t55.5 -54.5t33 -69.5t11 -75.5t-12 -72.5q-30 -86 -40.5 -114.5t-30.5 -68.5t-50 -84 q-34 -52 -77.5 -97.5t-85.5 -76.5t-75 -51.5t-62.5 -36t-31.5 -16.5q-12 -7 -27 -11q-12 -3 4 -20q28 -29 54 -59q1 -1 19.5 -19t29 -27.5t35 -31t44 -35t48.5 -32.5t55.5 -31.5t59 -24t63.5 -16.5q64 -11 118 -11q17 0 35 1q68 5 108 15.5t57 24.5q22 14 47.5 19t30.5 -2 q7 -7 7 -27q0 -15 -8 -34q-10 -22 -32 -33q-5 -3 -31 -18.5t-45 -24t-50 -20.5q-32 -12 -69 -16q-22 -3 -46 -2q-16 0 -32 1q-99 7 -216 52.5t-171 84.5q-25 18 -59.5 50t-64.5 62.5t-37 36.5q-4 3 -7.5 7.5t-6.5 7t-5.5 5.5t-4 3.5t-3.5 1t-2.5 -1.5t-1.5 -5.5t-1 -10v-15 t1 -20.5q2 -31 20 -141q16 -112 32 -208q13 -81 13 -99q0 -3 -4 -15q-1 -2 -4.5 -10.5t-8 -11.5t-11.5 -7q-6 -3 -13 -3h-4q-10 1 -22 5q-34 12 -47.5 38t-22.5 75q-4 24 -18.5 152t-26.5 244l-12 116zM152 804q4 -102 8 -180l6 -79q8 1 21.5 4t56 21.5t84.5 47t100 86 t109 132.5q46 68 64 130q13 44 13 78q0 14 -2 28q-8 44 -29.5 75t-51.5 44q-21 9 -41 9l-19 -2q-41 -9 -113 -47t-137 -95t-69 -104q-2 -25 -2 -65q0 -35 2 -83z" />
<glyph unicode="S" horiz-adv-x="1286" d="M16 868v24v32q1 30 82.5 95.5t181.5 128t185.5 111.5t99.5 52h9q58 1 104 -47q43 -46 44 -74q0 -3 -1 -6q-3 -22 -29 -33t-45 6q-12 10 -24.5 16t-19.5 7h-7q-40 -21 -101.5 -54.5t-179 -109t-149.5 -117.5q-14 -18 -14 -32.5t10 -24.5t26 -17.5t37.5 -12.5t41 -9.5 t39.5 -9t30 -9.5q668 -181 719 -204q6 -2 30 -11.5t41.5 -17.5t44 -21.5t44.5 -30t34.5 -37t22.5 -47.5q3 -14 3 -28t-3 -29q-6 -31 -20 -61t-38 -56.5t-46 -47.5t-56.5 -44.5t-54.5 -36t-56.5 -34t-46.5 -27.5q-42 -26 -118 -54.5t-166 -50.5q-87 -21 -174 -21h-8 q-90 1 -144 34q-43 27 -65.5 58t-24 56t3.5 46t13 33l8 12q2 1 6 1.5t13 0t16 -4t11 -14.5t1 -28q-1 -14 -2 -22t4.5 -14.5t10.5 -9.5t16 -6.5t20.5 -5.5t24.5 -6.5t28 -9.5q20 -8 55 -8q64 -1 175 27q172 42 311 126q56 32 93.5 63t53.5 53t21 43t3 32t-7 20q-19 41 -93 78 t-189.5 68t-225 55t-245.5 52t-206 46q-46 12 -78 31.5t-47.5 38.5t-23.5 48.5t-9 49.5z" />
<glyph unicode="T" horiz-adv-x="1001" d="M9 1124q-4 9 -4 18q0 22 21 47q20 25 48 32q19 3 79 3h21q78 0 166 -3l88 -2q6 59 6 73t15.5 24.5t44.5 10.5h4q14 -1 24 -7q10 -8 12 -14l1 -8l8 -86q10 0 27 -0.5t67 -1.5t96.5 -2t104.5 -2.5t101.5 -2t78 -0.5t43.5 1q17 1 41 6.5t63 6.5q32 1 45 -13q9 -10 9 -21 q0 -5 -2 -11q-6 -18 -25 -27q-22 -10 -137 -22.5t-135 -12.5l-385 -12l40 -1043q0 -14 -1 -22.5t-5 -25.5t-16 -24q-6 -4 -15 -4q-7 0 -16 3q-26 8 -41 35.5t-17 50.5l-1 24l-29 1006q-174 12 -334 14q-31 -11 -51 -11q-31 0 -40 23z" />
<glyph unicode="U" horiz-adv-x="845" d="M32 789q8 145 62 153q33 -2 48 -24t16 -68v-20q0 -37 -2 -77q-4 -52 -4 -134t10 -156q15 -115 61 -274t80 -166q9 -4 20 -4q25 -1 60 19q49 28 80 56q96 88 174 282t84 363q1 15 1 34q0 23 -2 51q-2 51 -9 71q-3 11 -25.5 29.5t-30.5 36.5q-17 34 -23 79q-2 17 -2 33 q0 28 6 55q10 43 38 62q26 17 44 19h4q15 0 23 -15q9 -17 12 -29.5t7 -42.5q1 -9 2 -14q17 -99 23.5 -143.5t14.5 -124.5q4 -46 4 -90q0 -32 -2 -62q-6 -72 -22 -151q-29 -153 -110.5 -302t-165.5 -233q-46 -48 -104 -78q-54 -28 -113 -28h-10q-64 2 -105 51q-28 32 -66 188 q-37 157 -62 333q-19 132 -19 245q1 39 3 76z" />
<glyph unicode="V" horiz-adv-x="661" d="M22 1136q20 26 48 15q21 -9 36.5 -28t22.5 -37.5t17.5 -48.5t17.5 -46q13 -34 65 -362t58 -353q4 -18 8.5 -27.5t7.5 -12t8 2t7 8t6.5 14t5.5 11.5q13 55 76.5 330.5t64.5 290.5q11 48 67 241t72 220q9 14 20 18q4 1 8 1q8 -1 14 -5q10 -6 18.5 -15t15.5 -20 q3 -8 3 -16.5t-3 -16.5q-6 -17 -16 -31l-11 -14q-264 -1130 -299 -1204q-7 -16 -16 -26t-18.5 -14t-17.5 -5h-5q-5 0 -13 2q-10 2 -16 4.5t-13.5 6.5t-8.5 4q-10 6 -30.5 64.5t-20.5 78.5q0 9 -13.5 93.5t-31 190.5t-23.5 144q-7 44 -25.5 129t-33.5 148l-15 63 q-24 39 -47 82q-10 23 -10 55q0 38 20 65z" />
<glyph unicode="W" horiz-adv-x="1165" d="M33 918q-4 18 -4 32q1 32 19 45q26 19 58 11q22 -5 36 -40t28 -104q4 -20 14 -109t22 -198.5t24 -216.5q14 -107 24 -178q10 -68 14 -68q5 0 49 174q43 169 95.5 382t60.5 245q13 56 49 71q14 6 28 6q22 0 46 -15q38 -24 59 -72q13 -34 68 -230t105 -361t63 -163 q17 -1 33.5 30t26.5 69.5t18 84.5q6 60 24 450.5t29 434.5q6 24 18 30q6 3 12 3q7 1 13 -3q12 -6 21 -15.5t12 -16.5q2 -4 2 -40q0 -88 -10 -370q-14 -398 -23 -452q-30 -207 -76 -266q-32 -43 -63 -63t-53.5 -20t-43.5 13t-32 27t-21 30q-19 32 -86.5 259.5t-101.5 381.5 q-13 67 -30 67q-15 0 -34 -55q-19 -57 -72 -311q-30 -141 -46 -188q-20 -66 -57.5 -159.5t-69.5 -133.5q-18 -24 -43 -34q-22 -8 -35 -8h-4q-14 2 -21 5q-26 26 -26 95v10v10q0 76 -28 294q-30 234 -60 432z" />
<glyph unicode="X" horiz-adv-x="872" d="M40 1131q-1 5 -1 10q0 13 6 33l2 6q2 5 7 14.5t11 18.5t16 15.5t21 6.5q21 -1 39 -28.5t27 -57.5t18.5 -69.5t12.5 -47.5q13 -36 52.5 -148.5t66 -187.5t30.5 -82q11 17 94.5 200.5t120.5 246.5q17 27 34.5 52t45.5 60q29 35 55 54q23 16 40 16h5q23 -4 35.5 -32t9.5 -50 q-2 -16 -28 -26t-37 -23q-37 -38 -75 -99t-63 -112t-64.5 -135t-61.5 -127q-7 -13 -23.5 -43t-27.5 -52.5t-13 -35.5v-5q-1 -49 67 -167q72 -124 124 -176q84 -84 139 -86q6 -1 24 8.5t35.5 18.5t35 7.5t24.5 -20.5q2 -5 2 -11q0 -28 -44 -60q-48 -35 -80 -35h-5 q-36 3 -70.5 17t-61 31.5t-56 48.5t-47.5 53t-43.5 62t-36.5 60t-33.5 61t-28.5 52q-16 -44 -56 -122t-64 -136q-19 -46 -18 -77q0 -8 1 -14q3 -11 11.5 -17.5t16.5 -9t12.5 -12t0.5 -26.5q-6 -21 -38 -38q-20 -11 -35 -11q-9 0 -17 4q-23 11 -32 65q-6 37 -6 62q0 11 1 20 q7 56 53 156.5t83 176.5q31 64 31 82q0 3 -1 5q2 3 2 9q-1 18 -15 64q-20 62 -49.5 141t-34.5 95q-94 277 -104 303q-6 11 -16 17.5t-16 9t-10 17.5z" />
<glyph unicode="Y" horiz-adv-x="958" d="M31 1153q9 17 47.5 34.5t58.5 6.5q5 -3 18 -37t15 -45q12 -88 12 -162q0 -20 -1 -38q-4 -89 -13 -196q-7 -80 -7 -122q0 -14 1 -23q3 -36 8.5 -70.5t15 -72t25 -64t35 -43.5t47.5 -13t61 30q29 21 90 104q87 121 168 355q21 60 57.5 221t71.5 223q7 10 37 15q8 1 16 1 q18 0 29 -8q20 -16 21 -91v-7q0 -72 -10 -149q-10 -80 -22 -166t-13 -103q-6 -110 -6 -270q0 -34 1 -71q1 -207 5.5 -399.5t7.5 -203.5q5 -12 8.5 -27t0.5 -40t-21 -35q-18 -7 -30.5 -7t-21.5 14t-14.5 29t-8.5 37.5t-4.5 39.5t-2.5 35.5t-2 25.5q-17 110 -21 253 q-3 80 -3 147q0 52 1 96q4 101 12.5 264t10.5 225q-3 -7 -23.5 -61t-27 -69.5t-28 -68t-32.5 -74.5t-33.5 -69t-38 -71t-39.5 -60.5t-44.5 -59t-46 -45t-50.5 -37.5q-42 -22 -80 -22q-20 0 -39 6q-55 18 -94 68t-55 118q-11 48 -18.5 160t-9.5 215t-3.5 201t-1.5 104 q0 16 -8 44z" />
<glyph unicode="Z" horiz-adv-x="1503" d="M0 1116q6 42 37 52q17 5 44 5q23 0 54 -4l852 2q6 -2 14.5 -5t27.5 -14t28.5 -23t6.5 -30.5t-28 -37.5q-5 -3 -38 -27.5t-44.5 -33t-45.5 -35t-51.5 -42t-51.5 -45.5t-56.5 -53t-55 -57t-57.5 -65.5t-54.5 -71t-55.5 -80.5q-253 -396 -250 -430q4 -15 35 -11t66 19 q18 8 91.5 29t197 49.5t260.5 48.5q136 20 280 24q20 1 39 0q120 0 217 -24q38 -9 46 -23q3 -6 3 -11q1 -8 -7 -15q-12 -12 -30.5 -21t-29.5 -8l-20 2q-20 3 -44.5 5t-65.5 4q-20 1 -43 1t-47 -1q-50 -2 -112 -6t-137 -15.5t-158 -28t-183.5 -43.5t-205.5 -61 q-70 -23 -124 -33q-50 -10 -70 -10h-4h-19q-6 2 -15 6.5t-26.5 25t-23.5 48.5q-2 9 -2 19q0 23 9 59q13 52 52 114q121 195 341.5 495.5t258.5 303.5l-327 -4l-376 -8q-4 0 -11.5 1t-26 5.5t-32.5 10.5q-14 8 -24 20q-8 10 -8 23v5z" />
<glyph unicode="[" horiz-adv-x="452" d="M14 1230.5q-3 17.5 0 24.5q5 11 19 17.5t30 7t33.5 0.5h28.5l11 1q11 1 26 2t35.5 1.5t41 0t40.5 -3.5t35.5 -8t26 -14t11.5 -22q2 -27 -28 -35.5t-68.5 -5t-78.5 3t-52 -11.5q-8 -7 -10.5 -34t-0.5 -66.5t5 -74t7 -73t5 -47.5q8 -111 9.5 -185t-1 -208t-2.5 -246 q0 -13 -2.5 -56t-2.5 -75t5 -41q12 -19 51 -21t78.5 5t71.5 1t33 -34q0 -8 -4 -15t-13 -11t-17.5 -7t-22.5 -4.5t-23.5 -2.5t-25.5 -1.5t-23 -1.5q-17 -2 -49 -7.5t-53.5 -8t-45.5 -2t-39 10.5t-22 31q-3 11 4.5 53.5t7.5 57.5q11 250 8.5 508.5t-26.5 535.5q-1 5 -5.5 24.5 t-7.5 37z" />
<glyph unicode="\" horiz-adv-x="843" d="M-0.5 1137.5q-2.5 19.5 10.5 42.5q3 7 9.5 9.5t17.5 4t18 4.5l4 2q4 1 12 3.5t17 4.5t20.5 1.5t20.5 -3.5q11 -4 71 -68.5t87 -97.5q32 -42 64.5 -94t56 -92.5t62.5 -110.5t65 -116q39 -67 147 -206.5t121 -180.5q4 -15 8.5 -35t4 -49.5t-12.5 -36.5q-16 -12 -32.5 -7 t-28 14t-23.5 27.5t-19 33.5t-15 31.5t-11 21.5q-12 17 -124.5 165.5t-162.5 229.5q-8 13 -38 63t-44.5 73t-44 68.5t-50 73.5t-48 61.5t-51.5 57.5q-5 5 -19.5 13t-28.5 15t-29.5 19t-23.5 25.5t-10.5 33z" />
<glyph unicode="]" horiz-adv-x="503" d="M4.5 1229.5q-4.5 24.5 3.5 44.5q8 11 35.5 13t56 -2t55.5 -8t31 -3q44 1 99.5 15.5t103.5 15.5q-12 -65 -17 -156.5t-4 -155.5t4.5 -185.5t4.5 -160.5q1 -45 1 -91.5t-0.5 -100.5t-0.5 -84q0 -22 10 -129t2 -166q0 -6 -16.5 -44.5t-20.5 -41.5q-11 -8 -40.5 -10t-69 -3 t-62.5 -6q-9 -2 -30 -8.5t-33.5 -8.5t-27.5 -1.5t-21.5 11.5t-4.5 32q3 23 44 37t86 18q7 1 46 -2t40 2q18 10 25 47t4.5 73.5t-7 74.5t-4.5 39q-4 101 -5.5 198t-1.5 156.5t0.5 190.5t0.5 210q0 8 1 49.5t1 71.5t-2 33q-9 9 -26 10t-33 -2.5t-35.5 -8t-28.5 -5.5 q-19 -3 -81.5 -0.5t-72.5 12.5q-5 5 -9.5 29.5z" />
<glyph unicode="_" horiz-adv-x="931" d="M-90.5 -156.5q1.5 18.5 12.5 41.5q20 42 63.5 54t102.5 3t138 -15t169 1q1 0 0 21.5t0 21.5q64 17 354 -6l47 -3q-8 2 -57 9q10 -1 30.5 -1.5t39 -0.5t42 -1.5t41 -5.5t36 -12.5t25.5 -22.5t10 -35t-9 -50q-12 -34 -323.5 -61.5t-407.5 -24.5q-18 1 -49 1.5t-53.5 1 t-52 2t-50.5 5t-43.5 9t-35.5 15t-22 22.5t-7.5 31.5z" />
<glyph unicode="`" d="M496 1397q6 6 22 16.5t39.5 10.5t30.5 -27q1 -2 31.5 -69.5t52.5 -132.5t8 -79q-30 -30 -89 27.5t-92.5 140t-2.5 113.5z" />
<glyph unicode="a" horiz-adv-x="987" d="M74 298q83 166 256 374q46 40 102 52q28 6 54 6q24 0 44 -6q42 -12 73.5 -32.5t37.5 -42.5q1 -10 1 -21q0 -34 -8 -70q-10 -46 -38 -128q-10 -28 -16.5 -66t-9.5 -84q-1 -9 -1 -18q-1 -34 9 -62q12 -34 36 -54q15 -12 38 -12q16 0 36 5q50 13 119 62q47 32 122 37 q11 1 20 1q40 0 40 -18q0 -17 -45 -47q-99 -65 -176.5 -94.5t-123.5 -31.5h-7q-42 0 -72 26q-32 28 -45.5 51t-18.5 72t-4.5 63t3.5 47v10q-4 4 -13.5 -8.5t-20.5 -31t-15 -23.5q-6 -16 -39.5 -60t-79.5 -96q-46 -51 -102 -89q-53 -36 -93 -36h-4q-120 20 -120 127 q0 77 61 198zM108 125q-1 -7 -1 -13q0 -37 33 -36q24 0 67 20q46 22 93.5 74t82.5 110t63.5 113t43.5 91l14 36q15 43 15 68q0 6 -1 10q-4 26 -28 28h-6q-22 0 -46 -10q-28 -11 -57 -30q-47 -31 -132.5 -166.5t-105.5 -188.5q-32 -79 -35 -106z" />
<glyph unicode="b" horiz-adv-x="903" d="M43 1049q11 47 29 63q10 9 20 10q7 0 14 -5q17 -11 29 -25.5t17 -26.5q5 -10 21 -177.5t29 -329.5l13 -163q26 105 49 156q10 22 25 47.5t45.5 61.5t66 62.5t87.5 43.5q41 13 84 14q13 0 26 -2q62 -7 102.5 -43.5t53.5 -84.5q11 -42 11 -84v-12q-2 -48 -20 -83 q-34 -70 -168.5 -233t-170.5 -197q-1 -1 -18 -16.5t-31.5 -27.5t-37.5 -30t-43 -28.5t-40 -18.5q-17 -7 -31 -7h-7q-17 2 -28 15q-29 35 -35 57.5t7 30.5t30 11t36 3t21 1q4 1 4 -1q0 -1 15 8q9 6 43 28q61 34 192.5 194.5t190.5 267.5q22 42 22 70q0 7 -1 13q-7 31 -39 43 q-25 10 -59 10q-8 0 -17 -1q-45 -3 -93 -20q-43 -15 -81.5 -58t-58 -82t-41 -90t-25.5 -59q-14 -26 -14 -106t-11 -123q-9 -40 -33 -46t-43 7l-20 14z" />
<glyph unicode="c" horiz-adv-x="638" d="M29 213q7 107 39.5 197.5t75 148.5t94.5 102t92.5 65t75.5 30q13 5 25 5q7 1 13 -1q18 -4 31 -8.5t24.5 -18t18.5 -24t13.5 -27t10 -27t7.5 -24.5q4 -17 4 -39q-1 -29 -7 -67q-12 -68 -32 -107q-15 -22 -35.5 -21t-38.5 14l-18 13q0 49 33 133q12 24 12 42q-1 25 -23 41 q-21 15 -42 15q-17 0 -35 -10q-35 -14 -81 -62t-86 -112q-41 -65 -64 -143q-15 -52 -15 -97q0 -24 4 -47q13 -44 29 -71t46 -43q22 -12 52 -13q10 0 22 2q42 6 108 37.5t153 91.5q21 13 37 13t27 -12q9 -10 9 -21q0 -8 -5 -17q-3 -5 -7 -8q-96 -76 -179 -116.5t-139 -44.5 q-13 -1 -25 -2q-42 0 -78 12q-46 16 -72.5 46t-44.5 65t-24 63q-5 24 -5 42v5z" />
<glyph unicode="d" horiz-adv-x="823" d="M-8 203q2 36 26 105t64 146t93 136.5t113 76.5q15 4 29 5q45 0 93 -39q19 -18 29 -10q11 7 13 21q1 7 1 37q0 39 27 229q29 204 52 286q21 70 82 123q44 38 77 38q17 0 32 -10q34 -22 41 -98q14 -188 14 -326v-19q-1 -144 -30.5 -259t-78.5 -201t-130 -172 q-4 -5 -10 -16.5t-9 -19.5l-4 -9q2 -42 16 -80t27 -57.5t33.5 -44.5t23.5 -29q16 -25 -2 -42t-47 -15q-22 1 -47.5 36t-42.5 75q-5 12 -10.5 31t-8.5 25.5t-10 9t-19 -10t-32 -39.5q-57 -88 -137 -124q-49 -22 -97 -21q-30 0 -59 8q-113 31 -113 217q0 18 1 37zM92 191 q-2 -13 -2 -24q0 -61 41 -99q30 -25 62 -25q15 0 30 5q49 16 94 62.5t75.5 93t37.5 70.5q11 44 11 81q-1 37 -11 69q-20 64 -56 100q-28 28 -48 28q-6 0 -11 -3q-35 -8 -86 -67t-89 -136t-48 -155zM518 428q3 -16 11 -16q16 0 49 66l8 16q7 15 10 20q78 162 82 244 q9 174 9 272q0 72 -5 103q-2 11 -4 37q-5 64 -15 65h-1q-8 0 -22 -28l-11 -23q-5 -18 -13.5 -49t-29 -123t-36.5 -180q-16 -86 -26 -200q-8 -82 -7 -153q0 -26 1 -51z" />
<glyph unicode="e" horiz-adv-x="649" d="M12 112q5 80 29 185q29 121 80.5 215.5t110.5 146.5q60 53 123 75q38 14 74 13q24 0 47 -6q58 -15 99 -63q58 -71 58 -136q0 -30 -13 -58q-40 -90 -171.5 -153.5t-315.5 -86.5l-22 -67q-17 -66 -17 -112q0 -79 50 -102q19 -9 45 -9q107 0 331 148q55 36 84 36q13 0 21 -8 q7 -7 7 -17q0 -17 -19 -42q-31 -44 -93 -73q-7 -3 -34.5 -18.5t-58.5 -32t-73 -34.5t-82 -31q-38 -13 -80 -16q-11 -1 -22 -1q-30 1 -54 7q-34 8 -59.5 37t-37.5 77q-8 34 -8 83q0 20 1 43zM172 342q13 2 35.5 6.5t80.5 19.5t103 32.5t83.5 46.5t41.5 61q1 9 1 18 q0 72 -44 116q-28 28 -58 27q-23 0 -46 -16q-38 -27 -90 -85q-52 -56 -88 -124q-24 -46 -24 -77q0 -14 5 -25z" />
<glyph unicode="f" horiz-adv-x="702" d="M-46 397q-11 13 -11 26q0 17 18 34q31 27 81 44t84 20l34 3q-4 206 -4 345q0 222 10 272q11 51 45 101t81 81.5t96 42.5q13 3 27 3q35 0 69 -21q48 -29 77 -99q30 -71 33 -119v-13q0 -37 -14 -51q-17 -17 -38 -24t-39 -4l-18 4q0 5 -1 14t-5 35t-9.5 49t-14.5 51 t-19.5 47t-26.5 30.5t-34 7.5q-53 -11 -79.5 -66t-37.5 -202q-7 -108 -7 -224.5t3 -178.5l4 -62q170 51 338 92q35 9 61 9q38 0 57 -19q10 -11 10 -23q0 -14 -13 -29q-32 -35 -105 -36q-41 -4 -121 -23q-222 -47 -216 -76l3 -4q62 -412 99 -549q18 -62 20 -100.5 t-11.5 -57.5t-43.5 -20h-1q-24 0 -39 36q-14 37 -23 99t-13 74q-6 24 -28.5 148.5t-41.5 237.5l-20 112q-74 -25 -137 -37q-14 -3 -26 -3q-35 0 -53 23z" />
<glyph unicode="g" horiz-adv-x="948" d="M6 426q14 58 59 142.5t111.5 161t124.5 91.5q23 6 43 6q85 0 129 -106q2 -3 2 -4q3 -6 18.5 3t33 14.5t36.5 -13.5q15 -20 21 -49t5.5 -53.5t0.5 -26.5q4 -24 162 -320q2 -3 5 -3q16 0 67 58q63 71 122 149l58 79q5 2 13 4t25.5 3.5t27.5 -4t10 -25.5l1 -1q0 -20 -18 -53 q-20 -39 -53.5 -83t-67 -79t-64.5 -63.5t-50 -44.5l-19 -16q16 -34 40 -87.5t63 -167.5q34 -104 34 -158v-11q-8 -142 -158 -280q-124 -115 -273 -166q-74 -26 -128 -26q-52 0 -84 25q-39 30 -39 89q0 74 61 193q7 14 15 29q72 130 196.5 323t149.5 218q10 11 -6.5 53.5 t-48.5 97.5t-53 89t-35 55q-5 6 -11 16.5t-10 17t-9 11t-11 2t-13 -13.5q-6 -14 -17 -37.5t-46 -85t-71 -110t-88.5 -93t-102.5 -53.5q-18 -3 -34 -3q-41 0 -70 21q-41 30 -54 82q-13 50 -13 102q0 55 13 101zM72 264q2 -10 6.5 -22t14.5 -16.5t24.5 -8t36.5 3.5 q40 9 84 50.5t78 94t62.5 103.5t43.5 86l16 35q-6 41 -17 66t-23 35.5t-30 10.5t-34.5 -4.5t-41.5 -14.5q-4 -2 -7 -3q-52 -19 -115 -139.5t-86 -194.5q-4 -15 -6.5 -27t-4.5 -28q-1 -9 -1 -16v-11zM358 -556q-1 -8 -1 -15q0 -25 9 -37q10 -16 28 -22q8 -3 18.5 -3t22.5 3 q24 6 45.5 15t43.5 21q3 1 28 15t38 21.5t42 25.5t47 31.5t45.5 35t44.5 39.5t37 42t30.5 46.5t16.5 49.5q4 17 4 35q0 8 -1 17q-13 126 -37.5 184t-91.5 136q-11 -15 -30.5 -40.5t-72 -98.5t-95.5 -138.5t-87.5 -144t-62.5 -131.5q-18 -52 -21 -87z" />
<glyph unicode="h" horiz-adv-x="847" d="M10 1339q14 19 30 25q7 3 14 3q8 1 15 -3q13 -6 24 -15.5t17 -18.5l7 -9l10 -1002q-2 -13 -2 -31q0 -23 3 -53q5 -54 17 -55q6 -1 17 20t27.5 63t27 70.5t27.5 74.5q22 60 94.5 202t110.5 203q14 22 32.5 27.5t35 -2.5t31.5 -19t24 -21l8 -10q59 -569 92 -626 q26 -41 50 -52q18 -9 53 -9q9 0 20 1q23 2 33 -6q9 -7 9 -17q1 -11 -5 -25q-4 -8 -7 -13q-2 -3 -16.5 -12.5t-40.5 -19.5t-49 -9q-30 1 -41.5 5t-31.5 22t-64 69q-22 26 -38 92t-24 140.5t-14.5 145.5t-14 117t-18.5 44q-26 -5 -85 -135.5t-103 -255.5q-12 -37 -26.5 -66.5 t-34 -55.5t-30 -38.5t-36.5 -38.5l-31 -31q-23 -20 -42 -20q-5 0 -9 2q-22 6 -36.5 25.5t-8.5 27.5q2 2 2 67q0 80 -3 260q-5 322 -12 643z" />
<glyph unicode="i" horiz-adv-x="348" d="M29 888v5q0 13 8 29q6 9 9.5 14t11 12t15.5 10q9 2 21 3h2q12 0 25 -5q24 -7 36 -32.5t7 -51t-25 -32.5q-3 -1 -8.5 -3.5t-19.5 -6.5t-25.5 -5t-23.5 3t-17 14q-14 31 -16 46zM80 616l49 -567q0 -3 0.5 -8t4 -19t9 -25t17 -22t26.5 -14q7 -2 13 -2q23 0 33 27q7 20 8 39 q0 14 -4 28q-5 26 -21 252t-16 270q0 127 -39 152q-10 5 -22 5q-1 0 -1 1l-23 -9q-12 -8 -20.5 -21t-12.5 -36q-2 -13 -2 -28q0 -11 1 -23z" />
<glyph unicode="j" horiz-adv-x="686" d="M22 -538q-15 49 -15 104q0 98 50 213q17 50 141.5 236.5t141.5 203.5q1 1 1 8q0 19 -9 80q-14 83 -34 184t-22 117q-9 65 -9 106q0 55 16 68q14 11 26.5 18t30.5 12t29 -10.5t10 -51.5q24 -412 49 -435l279 328q2 3 5 7t12 13.5t17.5 15.5t19.5 6t19 -9q12 -14 12 -31 q0 -22 -22 -49q-314 -377 -319 -391q87 -359 87 -554q0 -88 -18 -143q-52 -155 -169 -208q-48 -22 -96 -22q-51 0 -102 25q-96 47 -131 159zM96 -396q-3 -18 -3 -36q0 -44 17 -88q22 -60 83 -96q43 -14 79 -14q113 0 156 137q25 76 25 178q0 89 -19 197q-25 139 -65 222 q-10 -11 -26.5 -31t-60 -80t-78 -117t-67 -133t-41.5 -139zM176 1090q-2 4 -2 8q0 7 4 14q10 32 32 50q21 16 43 16h5q93 -6 115 -39q19 -28 19 -48q0 -34 -58 -42l-121 6q-2 1 -5 2t-11.5 5.5t-12.5 10.5t-8 17z" />
<glyph unicode="k" horiz-adv-x="784" d="M16 27q29 1030 31 1112q1 33 19 49t36 16h17h2q23 0 36 -18q13 -19 13 -38v-20l-31 -729q199 267 230 310q37 54 78 54q20 0 40 -13q13 -8 16.5 -18.5t-1 -20.5t-11 -19t-12.5 -14l-6 -6q-20 -23 -53 -62t-101 -121q-68 -83 -107 -141q-30 -46 -30 -59q0 -4 2 -6 q110 -66 241 -95.5t243 -29.5q60 0 84 -10q18 -8 18 -19q0 -3 -2 -7q-8 -14 -24 -29t-34 -25l-18 -11q-36 -3 -74 -3q-106 0 -222 24q-156 32 -269 100q4 -60 4 -101q0 -58 -8 -81q-3 -8 -6.5 -21.5t-6 -15t-12 -4t-30.5 -2.5q-24 0 -37 18.5t-14 36.5z" />
<glyph unicode="l" horiz-adv-x="262" d="M80 1149q6 44 13.5 56.5t35.5 21.5q6 2 11 2q4 1 8 -1q8 -4 11.5 -16t5.5 -21t3 -26.5t2 -21.5q3 -21 8.5 -537.5t5.5 -597.5v-10q0 -28 -4 -55q-6 -31 -20 -53q-11 -16 -26 -17q-5 0 -9 2q-19 5 -29 38.5t-10 64.5v30z" />
<glyph unicode="m" horiz-adv-x="1314" d="M14 668q-4 21 -4 38q0 28 9 46q14 30 47 30q43 0 69 -45t32.5 -117t6.5 -138t-4 -134.5t-4 -79.5q48 179 137 355q122 242 224 247h4q66 0 116 -106q16 -32 30 -236q10 -150 10 -219q0 -25 -1 -39q13 7 38.5 47.5t55.5 97t67.5 122.5t74.5 124t77.5 102.5t76.5 57.5 q12 4 24 4q23 0 45 -16q30 -26 37 -93q3 -32 3 -68q1 -38 -3 -80l-16 -160q-4 -44 -4 -84q0 -32 3 -62q6 -66 35 -88q12 -10 49 -5t51 -13q4 -11 4 -20q0 -30 -37 -46q-23 -10 -48 -10q-30 0 -62 14q-26 10 -45 29q-30 39 -38 129q-3 39 -4 79q0 49 6 97q10 86 12 164 q1 22 1 39q0 44 -6 57h-2q-16 0 -53 -55q-18 -27 -129 -216q-135 -233 -206 -286q-27 -20 -48 -20q-32 0 -53 45q-10 21 -14 161t-14.5 269.5t-37.5 142.5q-8 3 -16 3q-28 0 -58 -38q-38 -48 -69 -131.5t-65.5 -182.5t-63.5 -184q-30 -86 -62 -140q-29 -48 -54 -49 q-3 0 -7 1q-35 8 -48 80q-11 60 -11 132v28q1 49 2 101q0 42 -1 88q-2 102 -16 151q-4 12 -23.5 45.5t-19.5 34.5z" />
<glyph unicode="n" horiz-adv-x="858" d="M42 26q-1 28 -1 60q-1 70 3 156q6 124 13.5 247.5t14.5 208.5l6 86q2 2 -0.5 14.5t8.5 27.5t35 16q34 0 44.5 -14t10.5 -35l-35 -603q4 13 10.5 34.5t27.5 84t43 119t54 125t63 117.5t67 81q33 29 63 29h6q23 -3 50.5 -13.5t56.5 -41t32 -72.5q1 -11 11 -139t22 -221.5 t29 -124.5q8 -16 16 -35.5t10.5 -25.5t12.5 -13t24.5 -9t44.5 -3q27 0 42 -9q16 -10 16 -26q0 -11 -4 -23q-5 -14 -15 -24t-20 -12q-11 -3 -27 -3q-28 0 -68 8q-64 12 -85 40q-24 30 -59.5 238t-35.5 282q1 43 -16 71t-42 25t-44 -41q-197 -403 -272 -624q-8 -25 -38 -48 q-17 -13 -34 -13q-13 0 -25 7q-13 6 -15 96z" />
<glyph unicode="o" horiz-adv-x="677" d="M8 163v17q0 50 10 100q12 58 26 106.5t34 107.5t28 92q11 43 33.5 78.5t45.5 56.5t44.5 35.5t35.5 19.5l14 6q21 -6 30 -4.5t23 10.5q13 11 30.5 22.5t51.5 21.5q22 6 43 7q12 0 24 -3q49 -9 81.5 -55t47.5 -99l9 -23q9 -23 10.5 -30t6.5 -33q3 -17 3 -32q-1 -8 -1 -15 q-2 -22 -5.5 -57t-15.5 -78.5t-29 -96.5q-23 -71 -66 -136.5t-87.5 -110t-89 -78t-72.5 -49.5t-35 -17l-8 -2q-9 -1 -16.5 -1.5t-20.5 -0.5q-4 0 -8 -1q-8 0 -16 1q-11 1 -25.5 4.5t-27 9.5t-26.5 15.5t-25 23t-21 32.5t-17 42q-17 55 -19 114zM114 180q0 -40 7 -74 q16 -80 70 -80q20 0 44 11q82 36 176 163q102 137 125 252l5 37q-1 33 1 57v13q0 17 -3 33q-4 22 -5 36.5t-7 28t-8.5 20.5t-9 15.5t-9 11.5t-8.5 8.5t-7 6.5q-13 15 -46 15h-2q-35 0 -46 -23q-2 -4 -9 -24t-12.5 -33.5t-13 -30.5t-13.5 -26t-11 -9q-25 8 -41 22 q-11 15 -33.5 9.5t-34.5 -37.5q-1 -3 -11.5 -26t-18.5 -42t-21 -53t-22.5 -64t-18.5 -69t-13 -74q-4 -32 -4 -67v-7z" />
<glyph unicode="p" horiz-adv-x="686" d="M20 690q-5 17 -5 31q0 25 16 39q24 23 56.5 21t43.5 -15q9 -10 19 -51.5t16 -78.5l6 -36q5 8 14.5 20.5t39 47.5t59.5 63.5t72 57t81 40.5q21 7 44 7q18 0 37 -4q43 -10 79 -48q57 -60 64 -155q1 -17 1 -34q0 -78 -27 -156q-32 -95 -91 -177q-39 -56 -92 -108.5 t-99.5 -87.5t-87.5 -61.5t-66 -38.5l-24 -13q4 -109 12 -238q3 -44 9 -109.5t9 -104t1 -54.5q-1 -11 -9 -22t-22 -17q-4 -1 -9 -1q-11 0 -26 11q-10 6 -18.5 22.5t-14 35t-11 43.5t-7.5 41t-5 37t-3 22t-3 31.5t-6.5 65t-7 87.5t-5.5 103v45q0 31 1 64q2 58 7 106 q6 46 6 104.5t-6 130.5q-12 142 -30 238zM176 59q9 3 25 10.5t61 36.5t85.5 65t88 100.5t78.5 140.5q28 69 40 124q10 43 10 74q0 7 -1 14q-3 34 -17.5 55t-37.5 29q-15 4 -33 4q-10 0 -20 -1q-101 -11 -248 -269q-16 -30 -24 -126q-7 -85 -7 -158v-18v-81z" />
<glyph unicode="q" horiz-adv-x="755" d="M25 332q5 85 23.5 157.5t42.5 131t51 103t49.5 74.5t37.5 45l15 15q21 16 39 24.5t31 10.5q10 2 18 2q1 0 3 -1q8 0 16.5 -2.5t10.5 -2.5q15 -4 57 -37.5t60 -54.5q7 -10 10.5 -13t6 -2t11 -2.5t21.5 -13.5q17 -14 19.5 -47.5t-2.5 -60.5t-17 -80q-3 -13 -3 -36 q0 -41 10 -114q16 -114 37 -210l20 -97l6 2q21 0 92 -39q112 -59 191.5 -132.5t119 -143t55.5 -141.5q13 -57 13 -103q0 -13 -1 -24q-4 -56 -21 -101q-21 -56 -44.5 -91t-56.5 -54q-26 -16 -59 -16q-9 0 -18 1q-44 5 -101 35q-43 22 -87.5 105.5t-77.5 186t-60.5 202 t-41.5 166.5l-14 67q-98 -27 -114 -27q-15 0 -23.5 23t2.5 43q8 13 39 24.5t59 17.5l27 5q-2 16 -5.5 41t-12 76.5t-17 78t-14.5 11.5q-17 -35 -62.5 -93.5t-82.5 -99.5l-37 -41q-2 -2 -6.5 -5.5t-17.5 -12.5t-26 -16.5t-31 -15t-33.5 -10t-32.5 1t-30 14.5t-23.5 34 t-14.5 57q-8 68 -8 130q0 28 2 55zM127 184q2 -21 9.5 -30.5t17.5 -7.5t20 7t16 11l7 6q5 3 13.5 9.5t32 29.5t44.5 49t46 68.5t42 87.5q13 35 28 78q15 42 13 45q-4 6 -6 16q-1 24 11.5 39t12.5 20q0 11 -3.5 29.5t-12 46t-28.5 52.5t-48 36q-8 4 -16 4q-21 0 -46 -24 q-33 -34 -60 -88t-45.5 -102t-24.5 -72q-10 -50 -19 -148q-6 -62 -6 -111q0 -28 2 -51zM594 41q5 -23 14 -62.5t36.5 -142.5t53.5 -185.5t61 -160t64 -98.5q16 -12 31 -17q12 -4 21 -4q4 0 7 1q13 2 23.5 6t19.5 14t16 18t13 21.5t9 20.5t7.5 18t4.5 12q6 13 7 54v5 q0 40 -8 94q-7 58 -37.5 129t-80.5 127q-3 3 -17.5 20t-20.5 23.5t-22.5 22.5t-28.5 24t-32.5 20.5t-39.5 19t-45.5 12.5t-55.5 8z" />
<glyph unicode="r" horiz-adv-x="583" d="M7 648q7 18 19 26.5t21 7.5q2 0 12.5 0.5t18 -1t17 -7t16 -20.5t8.5 -38q2 -31 26 -172q23 -135 23 -188q0 -47 17 12l18 66q2 10 5.5 26.5t17.5 63.5t31.5 89.5t49.5 93.5t68.5 86t90.5 56q42 16 87 16q13 0 27 -1q17 -2 27.5 -6t13.5 -10.5t3 -13t-4.5 -14.5t-8 -13 t-8.5 -11l-5 -6l-8 1q-7 1 -18.5 1t-27 -1t-34 -7.5t-38 -17t-40.5 -30.5t-41 -47t-39.5 -67t-34.5 -90q-8 -24 -16 -47.5t-11 -32t-7.5 -26t-8 -38t-8.5 -59.5q-6 -49 -11.5 -93.5t-7.5 -62.5t-5 -32q-1 -7 -4 -25t-5.5 -33.5t-6 -32.5t-7.5 -28t-8 -14l-11 -9 q-10 -9 -17 -13q-7 -6 -20 -8q-4 -1 -7 0q-10 0 -16 4q-10 6 -20.5 26.5t-17.5 54.5q0 13 -12.5 143.5t-35 291t-42.5 204.5q-8 18 -8 32q0 8 3 14z" />
<glyph unicode="s" horiz-adv-x="839" d="M7 519q0 16 5 38q8 35 88.5 99t157.5 110l76 47q8 2 19 5t41 6q7 1 13 1q20 0 29 -8q21 -10 35.5 -24.5t20.5 -35t-11 -42.5q-11 -15 -23 -21t-18 -5.5t-20 5.5t-17 6q-3 0 -14 3t-16 3t-20 -4t-36 -14q-52 -24 -100 -65t-70 -70l-22 -29h73h68h39q51 0 112 -2 q85 -2 154 -8q143 -12 195 -51q47 -35 48 -105q0 -8 -1 -16q-6 -74 -130 -173.5t-243 -145.5q-52 -19 -90 -25q-12 -2 -24 -1q-23 0 -43 7q-30 11 -47.5 23t-45.5 39q-29 25 -36.5 51.5t-0.5 41.5t17 15q8 0 15 -7.5t14.5 -21t9.5 -16.5q12 -14 46 -29t79 -16h2q50 0 152 56 q104 58 157 114q28 30 41.5 49.5t16 39t-14 35t-51.5 30.5q-45 19 -235 19q-30 -1 -64 -1q-52 -1 -95 0q-157 0 -171 10q-20 11 -27.5 15.5t-19.5 14.5q-13 12 -15 22q-4 14 -3 31z" />
<glyph unicode="t" horiz-adv-x="718" d="M-2 594q-5 8 -5 19t5 25q10 28 39 38l239 82l-30 540q1 5 4 13.5t16 25t31 21.5q7 2 13 2q11 0 20 -6q13 -9 17 -20t5 -23l25 -531l450 43q9 -2 19 -17t16 -33q2 -7 3 -13q-1 -10 -7 -20q-10 -16 -37 -17q-35 -2 -143.5 -15t-199.5 -26l-91 -12l64 -658q-11 -55 -31 -55 q-18 0 -38 14t-26 33q-4 13 -21.5 172t-33.5 312l-16 153q-176 -43 -209 -68q-24 -15 -47.5 -6t-30.5 27z" />
<glyph unicode="u" horiz-adv-x="983" d="M14 635q0 23 28 41q18 12 41 12q13 0 26 -4q16 -5 27 -17t17.5 -32.5t9.5 -35t6.5 -40t4.5 -31.5t9.5 -58.5t17.5 -104.5t19 -109.5t17.5 -94.5t10.5 -38q6 -5 17 -8.5t31.5 19t39.5 67.5q34 60 117.5 266t83.5 223q0 5 -3 43t-2 47q4 7 18 17q15 9 34 17q9 4 18 4 q10 0 20 -4q20 -8 29 -36q1 -9 2 -24.5t6 -62.5t10 -93.5t14 -109.5t19 -118t23 -112t27 -98t32 -69.5t37 -33.5q16 -9 27.5 -5t15.5 9.5t13 17.5t20 19q4 2 13.5 4t19.5 0q12 -2 18 -10q4 -5 4 -13q0 -5 -2 -13q-4 -20 -22 -50q-40 -53 -91 -53q-5 1 -13 1q-60 8 -121 87 t-87 193l-45 252q-24 -55 -36 -90q-2 -5 -22.5 -57t-41.5 -101.5t-52 -106t-57 -84.5q-62 -56 -100 -57h-1q-38 0 -93 57q-26 39 -48 154t-38 220t-27 120q-41 52 -41 84z" />
<glyph unicode="v" horiz-adv-x="593" d="M14 700q-6 18 -6 33q0 26 19 37q14 6 31 3t32 -9l14 -6l240 -502l27 197q67 421 137 421q26 -1 43 -7t24 -13t9 -17q1 -7 1 -11q0 -5 -3 -15q-2 -4 -14.5 -25.5t-24 -45t-15.5 -38.5q-1 -3 -16.5 -76t-32.5 -156t-35 -172q-20 -90 -30 -150q-9 -51 -8 -61q0 -3 16 -23 q15 -18 27 -35t8 -23q-2 -5 -29 -11t-54 -9l-26 -4z" />
<glyph unicode="w" horiz-adv-x="1064" d="M-10 690q4 32 17.5 48t30 16t31 -5t25.5 -14q12 -8 29 -104t36.5 -238.5t24.5 -171.5q18 -117 39 -124q7 -1 15 3q7 4 18 27t25.5 63.5t28 81t33 98t32.5 95.5q27 80 27 169v10q0 10 -1 20q0 78 11 104q10 27 26.5 37.5t32 5.5t27.5 -13.5t16 -17.5q1 -2 35 -103.5 t72 -212.5t73 -211.5t41 -113.5q3 -8 7 -18l6 -15t5.5 -9t7 -3t8.5 5t13 14q45 58 74.5 138t41.5 165.5t16.5 155.5t5 144.5t2.5 96.5q4 33 14 47q8 11 18 10h6q14 -4 26.5 -13.5t21 -20t8.5 -13.5v-4q2 -36 2 -76v-20q0 -51 -3.5 -156.5t-19 -206.5t-41.5 -170 q-29 -77 -55.5 -120.5t-52.5 -59.5q-24 -16 -54 -18q-11 -1 -24 0q-19 0 -41 2q-27 1 -63 52t-68 123t-60.5 144.5t-45.5 122.5l-17 51q-12 -40 -31.5 -102.5t-66.5 -191t-78 -179.5q-23 -38 -45 -54q-15 -10 -29 -10q-7 0 -15 3q-22 8 -35 17.5t-34 31.5l-8 8 q-25 23 -64.5 259.5t-46.5 310.5q-1 9 -8.5 36.5t-14.5 50.5z" />
<glyph unicode="x" horiz-adv-x="817" d="M4 -61q-4 10 -4 18q0 15 16 23q16 6 84 109t128 203l61 99l-209 408q-1 3 -1.5 8.5t0 19t3.5 23.5t12 18.5t23 8.5q38 0 57 -16.5t18 -32.5v-17l150 -305q84 137 104 184q17 30 55.5 62t53.5 36q12 5 49 -15q43 -23 20 -36q-4 -2 -10 -4q-24 -7 -76 -87q-51 -80 -92 -158 q-43 -83 -43 -95q0 -24 79 -129q83 -110 126 -155q38 -41 59 -42q8 0 15 7q10 9 32 7.5t25 -18.5v-7q0 -49 -53 -70q-16 -7 -27 -9.5t-28.5 4t-25.5 11.5t-40 24q-26 18 -83.5 88t-101.5 130l-44 61q-230 -326 -244 -338q-5 -4 -18 -19l-24 -24q-9 -8 -14 -8h-3 q-17 4 -29 33z" />
<glyph unicode="y" horiz-adv-x="860" d="M30 496q-2 29 -2 56q0 63 8 110q10 69 30 69q16 0 26 -3.5t17.5 -16t11 -28.5t4.5 -49q1 -16 1 -33.5t-1 -35.5q-1 -36 -4 -96q1 -33 6.5 -78.5t17 -111t35.5 -103.5q18 -27 40 -27q8 0 16 3q53 20 107 85.5t93 147t59.5 131.5t30.5 80q19 46 19 100q0 25 37 32 q40 7 60 -12q14 -14 3 -36q-6 -12 -6 -40q0 -33 8 -86q15 -101 37 -188l21 -87q3 -7 7.5 -19t19 -50t27.5 -76.5t30.5 -93.5t31 -106.5t25.5 -110t18 -108.5q5 -43 5 -84v-13q-1 -48 -11 -83q-18 -60 -39 -100.5t-39 -62.5t-48 -35t-51 -16.5t-64 -8.5q-13 -1 -19 -2 q-8 -1 -17 -1q-35 0 -75 14q-48 17 -83.5 43t-59.5 48t-31 33q-33 46 -46 97q-7 30 -7 61q0 19 3 38q8 49 24.5 97t47.5 94.5t60 84.5t65.5 75.5t60 60t48.5 44t26 22.5q16 16 21 42.5t1 44.5l-3 19l-36 125q-29 85 -41 85q-4 0 -6 -6l-1 -5q-6 -28 -43 -89t-88.5 -126 t-116.5 -113q-62 -45 -113 -45h-4q-48 4 -84 75t-51 170t-19 198zM370 -400q3 -19 11 -40q8 -24 30 -50t51.5 -50t65 -40.5t70.5 -23.5q14 -3 28 -3q20 0 39 7q32 10 56.5 36t38.5 80q11 44 11 103q0 13 -1 27q-2 68 -26 174.5t-47 179.5l-23 72q-31 -37 -85 -102 q-44 -53 -64.5 -77.5t-51.5 -64t-43 -57.5t-29.5 -47t-21.5 -45t-9 -39q-2 -12 -2 -24q0 -8 2 -16z" />
<glyph unicode="z" horiz-adv-x="931" d="M2 66q6 39 41 77q51 56 280 243.5t275 219.5q8 5 -14 6h-4q-37 0 -284 -14q-88 -5 -131 -5q-34 0 -40 3q-8 3 -28.5 10t-30 11.5t-17.5 16t-6 28.5q3 21 21.5 31.5t35.5 10.5l17 1l592 8q5 -2 13 -4.5t25.5 -12.5t27 -21t8 -27.5t-22.5 -33.5q-12 -10 -173.5 -137.5 t-291 -232t-133.5 -115.5q-1 -4 -7.5 -17t-11 -23.5t-5.5 -24t5 -22.5t24.5 -14.5t49.5 -4.5q16 1 109 6q92 5 172 7q53 1 116 1h66q102 -1 187 -14t139 -37q63 -28 63 -42q0 -8 -20 -11q-16 -2 -41 -1q-9 0 -173 8q-165 8 -283 11q-36 1 -65 1q-70 0 -112 -5 q-45 -19 -170.5 -19t-155.5 25q-25 23 -39 49q-10 18 -9 43q-1 10 1 21z" />
<glyph unicode="{" horiz-adv-x="505" d="M12 1059q27 80 149 175t220 107q43 7 84.5 -9t38.5 -52q-1 -19 -14 -27t-27 -7.5t-36.5 2.5t-33.5 1q-55 -4 -124.5 -41.5t-120.5 -90.5t-56 -95q-5 -35 20.5 -78.5t59.5 -56.5q5 -2 35 -11.5t51 -16.5t53.5 -20t54 -24t40.5 -24.5t24 -26.5q8 -22 -6 -51.5t-31 -46.5 q-8 -7 -46 -31t-65 -45.5t-24 -34.5q1 -4 21 -12.5t43 -16.5l22 -8q3 -1 18.5 -6.5t20.5 -8.5l15 -9t14.5 -13.5t5.5 -17.5q3 -27 -31 -59.5t-83 -67t-64 -51.5q-26 -29 -48 -75.5t-31.5 -97t9.5 -94t70 -59.5q9 -2 36 3.5t45.5 7t34.5 -10.5q15 -17 -2.5 -53t-46.5 -45 q-43 -12 -84.5 3.5t-70 46t-47 61.5t-25.5 55q-48 169 129 356q5 6 20.5 19.5t26 24.5t8.5 17q-3 10 -46 14.5t-86 17t-46 42.5q-2 14 2.5 26.5t15 21.5t18 14.5t20.5 11.5l12 6q21 21 79 61q3 3 27.5 18t42 30.5t16.5 25.5q-2 18 -42 37.5t-94.5 37t-65.5 23.5 q-55 33 -92 96t-13 132z" />
<glyph unicode="|" horiz-adv-x="342" d="M36.5 1273q0.5 34 12.5 48q31 32 54.5 30t40 -28t25 -54.5t9.5 -49.5q2 -56 -8 -162.5t-10 -151.5q0 -202 2 -335t12.5 -324t30.5 -344q-25 -14 -52 6.5t-43.5 52t-23.5 59.5q-35 126 -42 325t0 441t5 322q-1 22 -7 76.5t-5.5 88.5z" />
<glyph unicode="}" horiz-adv-x="428" d="M53 717q-5 22 1.5 45t26 46.5t36 40t45 41.5t39.5 36q2 2 15 14t18 17l17.5 17.5t18.5 19.5t16.5 18.5t16 20t11.5 18.5t8 18.5t2 15.5q-2 34 -68 68q-16 8 -62 21.5t-79 28.5t-37 36q-5 17 3 39t21 29q10 7 110.5 -43.5t135.5 -73.5l6 -7q60 -69 62 -98q1 -15 -2.5 -30 t-13 -32t-18 -30t-25 -32.5t-26.5 -30l-30 -31.5t-27 -29q-17 -18 -55 -61q-1 -1 -27 -21t-35.5 -35.5t1.5 -29.5q12 -14 49 -17t71.5 -1.5t57 -12.5t12.5 -49q-5 -19 -29.5 -35t-51.5 -27t-53.5 -30t-35 -42t3.5 -63q11 -29 80 -74.5t86 -66.5q39 -55 29.5 -121t-60.5 -131 q-24 -30 -62.5 -55.5t-59.5 -17.5q-14 6 -20 37t7 55q8 16 37.5 27.5t42.5 27.5q29 37 35 64.5t-10 48t-37.5 35t-55.5 37t-55 42.5q-38 36 -50.5 89.5t7.5 107.5q3 10 29.5 40t26.5 34q-2 13 -25 27t-47 30.5t-27 34.5z" />
<glyph unicode="~" horiz-adv-x="1091" d="M84 1032q8 18 43 22t41 7q11 5 42 24t58.5 28.5t65.5 10.5q57 2 92 -8q39 -12 81 -39t73.5 -50t66.5 -41t74 -14t82 34q17 12 39 42t41.5 50t40.5 18q35 -3 48 -33t1 -67t-41 -58q-100 -72 -101 -73q-18 -16 -97 -32t-124 -5q-34 8 -68.5 37t-62.5 58t-45 34 q-45 14 -87.5 13t-78.5 -13q-8 -2 -23.5 -12.5t-32 -20t-35 -16.5t-38.5 -4.5t-37 16.5l-2 7q-29 56 -16 85z" />
<glyph unicode="&#xa2;" horiz-adv-x="815" d="M25 362q-8 68 5.5 131t43.5 103q24 33 49.5 59t45 39.5t36 22.5t25.5 11l8 3v270q2 3 6.5 7t16 11.5t21.5 8.5t21.5 -8.5t18.5 -32.5q10 -36 11.5 -97t-1.5 -104l-4 -43q168 -65 227 -118q37 -32 3 -60q-28 -23 -63 -17q-13 2 -20 9q-2 2 -6 5.5t-15.5 13t-22.5 18 t-25.5 19t-26.5 17t-23 11t-18 2.5t-8 -10q-4 -27 1.5 -138.5t12.5 -208.5l8 -98q6 1 18 4.5t50 22t78.5 45.5t101 81t119.5 122q32 38 31 -16l-5 -41q-9 -11 -24 -29t-61 -66.5t-90 -88t-102 -77.5t-106 -51q-12 -4 24.5 -123t49.5 -145q9 -20 -16.5 -43t-48.5 0 q-15 16 -41 90.5t-45 140.5l-19 66q-73 7 -127.5 49.5t-80 103.5t-33.5 129zM117 414q-2 -61 13 -107.5t37.5 -69t45.5 -37t39 -17.5l16 -3l-22 441q-5 0 -13.5 -1.5t-30.5 -13t-38.5 -31t-31 -62t-15.5 -99.5z" />
<glyph unicode="&#xa9;" horiz-adv-x="888" d="M13.5 636.5q1.5 34.5 4.5 53t9 49t8 45.5q0 11 34.5 93.5t57.5 103.5q143 135 291 158q52 7 122 -18.5t109 -61.5q4 -4 21.5 -17.5t39.5 -30t27 -20.5q47 -40 74 -178q15 -95 5.5 -170.5t-42.5 -134.5t-72.5 -101t-83.5 -70.5t-76 -42t-50 -15.5q-52 -8 -173 14 q-77 14 -182 102q-102 88 -119 183q-6 24 -4.5 58.5zM102 774q-28 -120 24.5 -235t158.5 -148q7 -2 14 -4.5t33.5 -7.5t50.5 -7t59.5 -0.5t67 9.5t67.5 26.5t65 46.5t55.5 73.5t43.5 103.5q6 52 3 113.5t-7 89.5q-5 14 -23.5 55.5t-25.5 46.5q-11 10 -91 59.5t-87 53.5 q-12 10 -41.5 14t-50.5 2q-58 -7 -97 -27t-85 -57q-48 -38 -84.5 -93.5t-49.5 -113.5zM250 666q-17 79 36.5 137.5t135.5 83.5q33 10 76 -17q41 -26 28 -51q-4 -9 -16 -16q-16 -6 -24 -4t-23.5 7.5t-26.5 6.5q-45 6 -83.5 -37t-28.5 -90q9 -38 47.5 -42t72 10t62.5 32 q40 24 47.5 20t11.5 -51q-29 -10 -69 -33t-74.5 -35.5t-73.5 -8.5q-30 3 -60.5 29.5t-37.5 58.5z" />
<glyph unicode="&#xad;" horiz-adv-x="598" d="M7 700.5q1 34.5 38 49.5q17 7 42.5 8.5t52.5 -0.5t65 0q16 1 32.5 1t46.5 -0.5t58 -0.5q5 0 23.5 0.5t35 0.5t35.5 -0.5t32 -2.5t17 -6q20 -18 21.5 -30t-15.5 -19.5t-36 -11t-52 -7.5q-29 -3 -91.5 -12.5t-105 -15.5t-97.5 -9t-70 8q-33 13 -32 47.5z" />
<glyph unicode="&#xae;" horiz-adv-x="964" d="M61 688q-4 104 31 168q44 89 125.5 145t194.5 62q2 0 37 1.5t69.5 2.5t40.5 0q41 -4 152.5 -48t126.5 -61q3 -1 19 -29.5t33.5 -67.5t20.5 -60q11 -71 -14 -191q-12 -58 -87.5 -158t-113.5 -112q-19 -7 -52 -13.5t-52 -11.5q-22 -7 -84 -12t-78 -2q-156 17 -211 53 q-71 46 -114.5 135.5t-43.5 198.5zM135 758q-17 -105 36 -210t132 -145q59 -27 147.5 -23.5t162.5 16t83 18.5q36 23 70 81.5t47 104.5q13 44 19 102.5t-6 118.5t-46 78q-9 5 -35 18l-34 17q-5 3 -58 24t-69 25q-63 15 -164 6q-137 -16 -191 -65q-32 -27 -60 -75.5 t-34 -90.5zM310 664.5q2 7.5 12 19.5q26 27 15 127t9 109q14 5 20 3t17 -9.5t18 -8.5q15 -3 37.5 -5t39 -3t37 -4t31.5 -8.5t23 -17t12 -28t-3 -42.5q-4 -21 -41 -55.5t-37 -43.5q0 -7 52.5 -45.5t84.5 -52.5q6 -3 24 -5t26.5 -9t8.5 -25q0 -16 -23 -34t-50 -15 q-13 1 -30.5 12.5t-38 29t-26.5 21.5q-23 17 -102 64q-8 -33 -6 -61t9.5 -48.5t6.5 -38t-16 -28.5q-16 -9 -28.5 -7.5t-20.5 7.5q-15 10 -16.5 38t2.5 56t-5 57q-3 9 -11 16.5t-15.5 11.5t-12.5 9.5t-3 13zM412 831q5 -12 3.5 -50t4.5 -48q26 0 63 36t21 56q-6 9 -22.5 9 t-34 -3.5t-35.5 0.5z" />
<glyph unicode="&#xb0;" horiz-adv-x="342" d="M16.5 1217.5q1.5 76.5 12.5 91.5q7 10 49 20q6 2 18.5 -5.5t22.5 -8.5q15 -1 42 3.5t50 8.5t47.5 3t44 -16t29.5 -46q5 -26 -8 -76q-6 -35 -23 -77t-31 -60q-30 -39 -81 -51t-97.5 9.5t-62.5 73.5q-14 54 -12.5 130.5zM114.5 1157q0.5 -65 10.5 -70q15 -8 49 16.5t56 65 t6 70.5q-7 12 -56 0q-2 0 -18.5 -1t-27 -3.5t-15.5 -7.5t-4.5 -70z" />
<glyph unicode="&#xb4;" d="M635 1099q-9 64 28 180q40 124 89 151q148 83 143 2q-5 -74 -114 -233q-65 -95 -85 -105q-52 -55 -61 5z" />
<glyph unicode="&#xb7;" horiz-adv-x="505" d="M134 736q-15 66 56 104q11 6 28 17.5t25 16.5t20 7t19.5 -6t17 -26.5t19.5 -51.5q44 -148 -14 -178q-40 -20 -99 21t-72 96z" />
<glyph unicode="&#xba;" horiz-adv-x="589" d="M8 163q-2 59 10 117.5t26 106.5t34 107t28 92q11 43 33.5 78.5t45.5 56.5t44.5 35.5t35.5 19.5l14 6q21 -6 30 -4.5t23 10.5q13 11 30.5 22.5t52 21.5t66.5 4q49 -9 81.5 -55t47.5 -99l9 -23q9 -23 10.5 -30t6.5 -32.5t2.5 -47.5t-6 -57t-15.5 -78.5t-29 -96.5 q-23 -71 -66 -136.5t-87.5 -110t-89 -78t-72.5 -49.5t-35 -17l-8 -2q-9 -1 -16.5 -1.5t-20.5 -1t-24 0.5t-25.5 4.5t-27 9.5t-26.5 15.5t-25 23t-21 32.5t-17 42q-17 55 -19 114zM113.5 179.5q0.5 -39.5 7.5 -73.5q22 -109 114 -69q82 36 176 163q102 137 125 252l5 37 q-1 34 0.5 57.5t-2.5 46t-5 36.5t-7 27.5t-8.5 20.5t-9 15.5t-9 11.5t-8.5 8.5t-7 6.5q-13 15 -48 14.5t-46 -22.5q-2 -4 -9 -24t-12.5 -33.5t-13 -30.5t-13.5 -26t-11 -9q-25 8 -41 22q-11 15 -33.5 9.5t-34.5 -37.5q-1 -3 -11.5 -26t-18.5 -42t-21 -53t-22.5 -64 t-18.5 -69t-13.5 -74t-4 -74.5z" />
<glyph unicode="&#xc9;" />
<glyph unicode="&#xd7;" d="M59.5 927.5q-9.5 40.5 14.5 80.5q23 43 47.5 63t50 12t45.5 -20t47 -49.5t40.5 -59t39.5 -64.5q15 -26 23 -38.5t19 -29t18.5 -23t13.5 -6.5t32 30t66.5 74t73.5 68q-26 -19 -24 -9q4 17 50 56q89 76 153 60q20 -5 36 -21q23 -21 19 -48t-21 -52t-45 -52t-53.5 -47 t-47 -36.5t-24.5 -22.5q-27 -42 -30.5 -100.5t26 -116t90.5 -84.5q9 -4 44.5 2t41.5 -2q6 -5 21.5 -44t21.5 -42q8 -4 44.5 1.5t41.5 -1.5q82 -81 20 -114q-55 -29 -169 -7q-61 11 -109 34q-19 9 -43.5 37l-45.5 52t-46.5 42t-56.5 8t-66 -52q2 2 1 0q-3 -20 -54 -109 q-92 -161 -143 -159q-11 1 -19 9q-29 29 44 262q0 -1 -1 -3q1 3 23.5 42t43 79t19.5 51q-3 40 -30.5 79.5t-63.5 69.5t-75.5 65t-66.5 65t-36.5 70.5z" />
<glyph unicode="&#xe0;" horiz-adv-x="845" />
<glyph unicode="&#xe1;" horiz-adv-x="851" />
<glyph unicode="&#xe3;" horiz-adv-x="976" d="M63 1012q8 18 43 21.5t41 6.5q12 6 42.5 25t58 28.5t65.5 10.5q58 2 93 -8q39 -12 81 -39t73 -50.5t66 -41t74 -14t82 33.5q17 12 39 42t41.5 50.5t40.5 18.5q35 -3 48 -33t1 -67t-41 -58q-93 -67 -100 -74q-18 -16 -97 -32t-124 -5q-34 8 -68.5 37t-62.5 58t-45 34 q-45 14 -87.5 13t-78.5 -13q-8 -2 -23.5 -12t-32 -19.5t-35 -16.5t-38.5 -4.5t-37 16.5l-2 7q-30 56 -17 85zM74 298q83 166 256 374q47 40 102.5 52t98 0.5t73.5 -32.5t37 -43q3 -45 -7 -91.5t-38 -127.5q-10 -28 -16.5 -66t-9.5 -83.5t8.5 -80t35.5 -54.5t73.5 -7 t119.5 62q47 32 122 37q63 5 60 -19q-3 -17 -45 -45q-99 -65 -176.5 -94.5t-124 -31.5t-78.5 25.5t-45.5 51t-18.5 72.5t-4.5 63t3.5 47v10q-4 4 -13.5 -8.5t-20.5 -31t-15 -23.5q-6 -16 -39.5 -60t-80 -95.5t-102 -89.5t-96.5 -36q-205 34 -59 325zM108 125q-10 -81 99 -29 q46 22 93.5 74t82.5 110t63.5 113t43.5 91l14 36q18 53 14 78.5t-28.5 27t-52 -9.5t-56.5 -30q-47 -31 -132.5 -166.5t-105.5 -188.5q-32 -79 -35 -106z" />
<glyph unicode="&#xe8;" horiz-adv-x="897" />
<glyph unicode="&#xe9;" horiz-adv-x="606" />
<glyph unicode="&#xec;" horiz-adv-x="307" />
<glyph unicode="&#xed;" horiz-adv-x="387" />
<glyph unicode="&#xf1;" horiz-adv-x="985" d="M41.5 26.5q-2.5 90.5 3 215t13 248t14.5 208.5l6 86q2 2 -0.5 14.5t8.5 27.5t35 16q34 0 44.5 -14t10.5 -35l-35 -603q4 13 10.5 34.5t27.5 84t43 119t54 125t63 117.5t67 81t69 29q23 -3 50.5 -13.5t56.5 -41t32 -72.5q1 -11 11 -139t22 -221.5t29 -124.5 q8 -16 16 -35.5t10.5 -25.5t12.5 -13t24.5 -9t44.5 -3q27 0 42 -9t16 -22t-4 -26.5t-15 -24t-20 -12.5q-31 -7 -94.5 5t-85.5 40q-24 30 -59.5 238t-35.5 282q1 43 -16 71t-42 25t-44 -41q-197 -403 -272 -624q-8 -25 -38 -48t-59 -6q-13 6 -15.5 96.5zM84 1032q8 18 43 22 t41 7q11 5 42 24t58.5 28.5t65.5 10.5q57 2 92 -8q39 -12 81 -39t73.5 -50t66.5 -41t74 -14t82 34q17 12 39 42t41.5 50t40.5 18q35 -3 48 -33t1 -67t-41 -58q-100 -72 -101 -73q-18 -16 -97 -32t-124 -5q-34 8 -68.5 37t-62.5 58t-45 34q-45 14 -87.5 13t-78.5 -13 q-8 -2 -23.5 -12.5t-32 -20t-35 -16.5t-38.5 -4.5t-37 16.5l-2 7q-29 56 -16 85z" />
<glyph unicode="&#xf2;" />
<glyph unicode="&#xf3;" horiz-adv-x="575" />
<glyph unicode="&#xf5;" horiz-adv-x="991" d="M8 163q-2 59 10 117.5t26 106.5t34 107t28 92q11 43 33.5 78.5t45.5 56.5t44.5 35.5t35.5 19.5l14 6q21 -6 30 -4.5t23 10.5q13 11 30.5 22.5t52 21.5t66.5 4q49 -9 81.5 -55t47.5 -99l9 -23q9 -23 10.5 -30t6.5 -32.5t2.5 -47.5t-6 -57t-15.5 -78.5t-29 -96.5 q-23 -71 -66 -136.5t-87.5 -110t-89 -78t-72.5 -49.5t-35 -17l-8 -2q-9 -1 -16.5 -1.5t-20.5 -1t-24 0.5t-25.5 4.5t-27 9.5t-26.5 15.5t-25 23t-21 32.5t-17 42q-17 55 -19 114zM84 1032q8 18 43 22t41 7q11 5 42 24t58.5 28.5t65.5 10.5q57 2 92 -8q39 -12 81 -39 t73.5 -50t66.5 -41t74 -14t82 34q17 12 39 42t41.5 50t40.5 18q35 -3 48 -33t1 -67t-41 -58q-100 -72 -101 -73q-18 -16 -97 -32t-124 -5q-34 8 -68.5 37t-62.5 58t-45 34q-45 14 -87.5 13t-78.5 -13q-8 -2 -23.5 -12.5t-32 -20t-35 -16.5t-38.5 -4.5t-37 16.5l-2 7 q-29 56 -16 85zM113.5 179.5q0.5 -39.5 7.5 -73.5q22 -109 114 -69q82 36 176 163q102 137 125 252l5 37q-1 34 0.5 57.5t-2.5 46t-5 36.5t-7 27.5t-8.5 20.5t-9 15.5t-9 11.5t-8.5 8.5t-7 6.5q-13 15 -48 14.5t-46 -22.5q-2 -4 -9 -24t-12.5 -33.5t-13 -30.5t-13.5 -26 t-11 -9q-25 8 -41 22q-11 15 -33.5 9.5t-34.5 -37.5q-1 -3 -11.5 -26t-18.5 -42t-21 -53t-22.5 -64t-18.5 -69t-13.5 -74t-4 -74.5z" />
<glyph unicode="&#xf7;" horiz-adv-x="950" d="M27 545q-109 111 207 163q41 7 111 15q32 4 42 6q42 7 197 10t217 0q2 0 25.5 4t45 6.5t43 -4t25.5 -24.5q6 -26 -13 -41.5t-53 -19.5t-75.5 -5t-81.5 1t-72 -1q-68 -3 -190 -29.5t-170 -33.5q-26 -4 -59 -15.5t-59.5 -22.5t-53 -19.5t-48.5 -6.5t-38 17zM240.5 999.5 q11.5 46.5 72.5 53.5q38 5 64.5 -25t17.5 -78l-15 -17q-37 -46 -40 -46q-46 -11 -78.5 27.5t-21 85zM410 263q-4 35 20.5 65t67.5 32q67 4 74 -45q7 -42 -30 -80q-42 -46 -93 -25q-4 1 -7 3q-28 15 -32 50z" />
<glyph unicode="&#xf9;" d="M250 1049q6 6 22 16.5t39.5 10.5t30.5 -27q1 -2 31.5 -69.5t52.5 -132.5t8 -79q-30 -30 -89 27.5t-92.5 140t-2.5 113.5z" />
<glyph unicode="&#xfa;" />
<glyph unicode="&#x2c6;" horiz-adv-x="700" d="M18 750q-6 10 12.5 55t52.5 107t66 117.5t61 104.5t30 50q7 12 7.5 34t12.5 27q22 9 45 -3t42 -39.5t32.5 -52.5t25.5 -53.5t13 -29.5q4 -12 16.5 -44.5t38.5 -87.5t47 -83q16 -19 39 -33t25 -20q13 -41 -7 -64.5t-69 0.5q-21 12 -70 97.5t-92 165.5t-51 81 q-16 3 -36.5 -22.5t-27.5 -38.5q-7 -14 -36.5 -83t-56 -129.5t-29.5 -62.5q-21 -11 -53.5 -6.5t-37.5 13.5z" />
<glyph unicode="&#x2000;" horiz-adv-x="824" />
<glyph unicode="&#x2001;" horiz-adv-x="1648" />
<glyph unicode="&#x2002;" horiz-adv-x="824" />
<glyph unicode="&#x2003;" horiz-adv-x="1648" />
<glyph unicode="&#x2004;" horiz-adv-x="549" />
<glyph unicode="&#x2005;" horiz-adv-x="412" />
<glyph unicode="&#x2006;" horiz-adv-x="274" />
<glyph unicode="&#x2007;" horiz-adv-x="274" />
<glyph unicode="&#x2008;" horiz-adv-x="206" />
<glyph unicode="&#x2009;" horiz-adv-x="329" />
<glyph unicode="&#x200a;" horiz-adv-x="91" />
<glyph unicode="&#x2010;" horiz-adv-x="598" d="M7 700.5q1 34.5 38 49.5q17 7 42.5 8.5t52.5 -0.5t65 0q16 1 32.5 1t46.5 -0.5t58 -0.5q5 0 23.5 0.5t35 0.5t35.5 -0.5t32 -2.5t17 -6q20 -18 21.5 -30t-15.5 -19.5t-36 -11t-52 -7.5q-29 -3 -91.5 -12.5t-105 -15.5t-97.5 -9t-70 8q-33 13 -32 47.5z" />
<glyph unicode="&#x2011;" horiz-adv-x="598" d="M7 700.5q1 34.5 38 49.5q17 7 42.5 8.5t52.5 -0.5t65 0q16 1 32.5 1t46.5 -0.5t58 -0.5q5 0 23.5 0.5t35 0.5t35.5 -0.5t32 -2.5t17 -6q20 -18 21.5 -30t-15.5 -19.5t-36 -11t-52 -7.5q-29 -3 -91.5 -12.5t-105 -15.5t-97.5 -9t-70 8q-33 13 -32 47.5z" />
<glyph unicode="&#x2012;" horiz-adv-x="598" d="M7 700.5q1 34.5 38 49.5q17 7 42.5 8.5t52.5 -0.5t65 0q16 1 32.5 1t46.5 -0.5t58 -0.5q5 0 23.5 0.5t35 0.5t35.5 -0.5t32 -2.5t17 -6q20 -18 21.5 -30t-15.5 -19.5t-36 -11t-52 -7.5q-29 -3 -91.5 -12.5t-105 -15.5t-97.5 -9t-70 8q-33 13 -32 47.5z" />
<glyph unicode="&#x2013;" horiz-adv-x="1071" d="M2 582q-5 35 7.5 54.5t40.5 24t55.5 3.5t66.5 -5t59 -4q89 1 416.5 37.5t423.5 26.5q-8 -31 -29 -50t-51.5 -26t-58.5 -9.5t-61.5 -3t-49.5 -3.5q-58 -10 -207 -44.5t-235 -47.5q-1 0 -31.5 -4.5t-45.5 -6t-50.5 -5t-57 -3.5h-53.5t-52.5 4.5t-41.5 11.5t-32 20t-13 30z " />
<glyph unicode="&#x2014;" horiz-adv-x="1708" d="M4 694q3 11 17 18.5t38 12t44.5 7t51.5 5t44 4.5q292 45 632 50q333 7 576 -9q229 -9 235 -49q4 -32 -90 -47q-70 -12 -206 -12t-256.5 4.5t-249.5 -0.5q-21 -1 -94 -4.5t-117.5 -6t-112 -7t-128.5 -10.5t-118 -13q-25 -3 -68.5 -12t-75 -13t-50.5 0q-28 6 -54 29.5 t-18 52.5z" />
<glyph unicode="&#x2018;" horiz-adv-x="364" d="M0 1375q5 113 23 157q9 21 41 64t40 46q46 17 81 -10t30 -55q-2 -12 -41 -32t-51 -42q-11 -22 -21 -93t-6 -99q5 -40 31.5 -67t66.5 -52.5t58 -46.5q-30 -27 -69 -27.5t-72.5 18.5t-60 44t-38.5 47q-17 35 -12 148z" />
<glyph unicode="&#x2019;" horiz-adv-x="372" d="M94 1020q-18 21 24.5 124.5t71.5 117.5q55 26 60 -32q4 -59 -36 -140q-40 -78 -82 -85q-21 -3 -38 15z" />
<glyph unicode="&#x201c;" horiz-adv-x="878" d="M9 1205q9 123 61 149l12 4q11 2 36 -8.5t34 -32.5q7 -18 -15 -58.5t-26 -58.5q-8 -32 -8.5 -81.5t8.5 -69.5q4 -11 20.5 -31.5t27 -34.5t6 -31t-33.5 -28q-58 -22 -95 69q-36 92 -27 212zM186 1020q-15 81 6.5 173t55.5 103q24 6 49.5 -5.5t26.5 -43.5t-18 -56.5 t-23 -39.5q-9 -32 -9 -77t9 -68q3 -9 12.5 -21t18.5 -22t16 -21t6 -22.5t-12 -22.5q-24 -20 -52.5 -7t-53.5 50.5t-32 79.5z" />
<glyph unicode="&#x201d;" horiz-adv-x="552" d="M20 979q0 23 18.5 40t40.5 27t40.5 31.5t17.5 52.5q-1 13 -17 32.5t-34.5 37.5t-33.5 36.5t-12.5 34t28.5 25.5q21 7 56.5 -11.5t67 -53t46.5 -82.5t-5 -100q-10 -26 -67 -75.5t-84 -49.5q-32 0 -48 15t-14 40zM268 993q-3 20 17.5 46t23.5 36q6 23 -9 70.5t-5 87.5 q39 4 67 -30.5t36.5 -81.5t-3.5 -96t-45 -73q-23 -16 -51 0.5t-31 40.5z" />
<glyph unicode="&#x2022;" horiz-adv-x="505" d="M68 523q-43 89 36 169q32 32 84 60q3 0 2 32l-2 33q64 -11 115 -62t72.5 -112t9 -123t-65.5 -94q-61 -37 -145 0q-75 32 -106 97z" />
<glyph unicode="&#x202f;" horiz-adv-x="329" />
<glyph unicode="&#x205f;" horiz-adv-x="412" />
<glyph unicode="&#x2122;" horiz-adv-x="1142" d="M14 962q-4 17 17 46q12 8 23.5 6.5t37.5 -5t43 -1.5q16 3 23 11.5t18 10.5q5 0 27 -6t35 -8q9 -1 46 3.5t75 9t72 4t40 -10.5q11 -15 11 -26.5t-6 -17.5t-18.5 -10t-21 -5t-20.5 -2q-40 -2 -95 -12t-63 -23q-6 -10 3.5 -40t10.5 -36q0 -1 3 -29t4 -51.5t0.5 -54.5 t-7.5 -55t-20 -37q-57 -54 -70 72q-2 13 -5 124q-1 6 -1 10q-1 5 -2 24t-2.5 34t-3.5 18q-3 4 -26.5 7.5t-49.5 8t-50 14.5t-28 27zM550.5 970q0.5 15 10.5 25q13 13 55 -2t56 -26q14 -10 41.5 -48.5t52.5 -64t43 -18.5q14 6 38.5 38.5t48.5 68t55.5 69t59 42.5t60.5 -12 q8 -6 14 -17t9.5 -27t6.5 -31t4 -37.5t1.5 -37.5t0 -38.5t-0.5 -33.5t-1 -30.5t-1 -21.5t3.5 -19t7 -38.5t3.5 -42.5t-6 -31q-22 -25 -57.5 -14t-46.5 34q-17 41 -3.5 140.5t-9.5 128.5q-21 -38 -45.5 -71.5t-59 -65t-67.5 -44t-70 2t-69 61.5q-4 -5 -19 -83 q-24 -120 -59 -120q-15 1 -31 17q-11 11 0 139q0 15 1.5 42.5t1.5 48.5t-3 38q-1 7 -7.5 22.5t-12 28.5t-5 28z" />
<glyph unicode="&#xe000;" horiz-adv-x="880" d="M0 0v881h881v-881h-881z" />
<glyph unicode="&#xfb02;" horiz-adv-x="739" d="M-68 496q-8 28 32.5 43t88 20.5t49.5 7.5q7 10 -8 70t-36 135t-31.5 159t4.5 144q11 47 50.5 91t68.5 55q60 24 110 4.5t84 -78.5q-41 73 -36 69q9 -6 40 -72q58 -123 21 -140q-31 -14 -49 8.5t-25 58t-25.5 68t-48.5 35.5q-20 2 -61.5 -24t-57.5 -75v-16 q-5 -429 72 -467q12 -5 87.5 33t155.5 93.5t97 90.5q6 18 4 39t-6.5 40t1.5 31.5t26 12.5q29 0 43 -8.5t16.5 -29t-0.5 -42.5t-7.5 -63t-4.5 -76q2 -258 12 -349q15 -133 59 -255l29 -31q59 -75 -4 -90q-26 -8 -48 13t-38 66.5t-28 97t-21 120t-14.5 118.5t-11 110t-7.5 79 l-9 33l-18 65q-17 15 -143 -74q-117 -79 -133.5 -102t6.5 -71q44 -98 55 -214q5 -75 -10 -231q-1 -10 1 -3q1 5 9 42q-15 -71 -43 -88q-23 -14 -30 29q-5 30 0 81q2 23 13 53t9 44q0 52 -38 191t-56 149q18 -10 -16 -17q-61 -12 -133 -2q-42 6 -46 19z" />
</font>
</defs>
</svg>
